<svg width="190" height="163" viewBox="0 0 190 163" fill="none" xmlns="http://www.w3.org/2000/svg">
<rect width="190" height="163" rx="20" fill="#81C784"/>
<rect width="190" height="163" rx="20" fill="black" fill-opacity="0.2"/>
<mask id="mask0_478_42" style="mask-type:alpha" maskUnits="userSpaceOnUse" x="0" y="0" width="190" height="163">
<rect width="190" height="163" rx="20" fill="#81C784"/>
<rect width="190" height="163" rx="20" fill="black" fill-opacity="0.2"/>
</mask>
<g mask="url(#mask0_478_42)">
</g>
<mask id="mask1_478_42" style="mask-type:alpha" maskUnits="userSpaceOnUse" x="0" y="0" width="190" height="163">
<rect width="190" height="163" rx="20" fill="#81C784"/>
<rect width="190" height="163" rx="20" fill="black" fill-opacity="0.2"/>
</mask>
<g mask="url(#mask1_478_42)">
<path d="M35.3196 75.2337C30.4672 73.1369 25.0949 73.1369 20.2425 75.2337L-3.98296 85.7C-5.96434 86.5553 -7.66845 88.0651 -8.87054 90.0304C-10.0726 91.9958 -10.7163 94.3242 -10.7165 96.7088V105.359C-6.13296 104.709 -1.47755 105.344 2.83461 107.207L27.0531 117.681C30.3559 119.105 33.1968 121.621 35.2011 124.896C37.2055 128.171 38.2791 132.052 38.2804 136.026V173.613C38.2806 175.193 38.1114 176.766 37.7764 178.3L59.5521 168.895C61.5334 168.04 63.2376 166.53 64.4396 164.565C65.6417 162.6 66.2854 160.271 66.2856 157.887V96.7088C66.2854 94.3242 65.6417 91.9958 64.4396 90.0304C63.2376 88.0651 61.5334 86.5553 59.5521 85.7L35.3196 75.2337ZM48.3948 92.1716C48.824 91.9863 49.2816 91.8977 49.7413 91.911C50.201 91.9243 50.6539 92.0392 51.0742 92.2491C51.4944 92.459 51.8736 92.7599 52.1903 93.1345C52.5071 93.5091 52.755 93.9501 52.92 94.4324C53.085 94.9146 53.1638 95.4286 53.152 95.9451C53.1401 96.4616 53.0379 96.9704 52.851 97.4424C52.6641 97.9145 52.3963 98.3406 52.0629 98.6964C51.7294 99.0522 51.3369 99.3307 50.9076 99.5161L31.5468 107.875C29.1206 108.923 26.4345 108.923 24.0083 107.875L4.6475 99.5161C3.78056 99.1407 3.08187 98.3938 2.70514 97.4397C2.3284 96.4855 2.30447 95.4024 2.63862 94.4284C2.97278 93.4545 3.63763 92.6696 4.48693 92.2463C5.33623 91.8231 6.30041 91.7962 7.16734 92.1716L26.5211 100.538C27.3319 100.89 28.2302 100.89 29.041 100.538L48.3948 92.1716ZM-14.7553 114.551C-9.90289 112.454 -4.53063 112.454 0.321766 114.551L24.5473 125.017C28.607 126.771 31.2738 131.151 31.2738 136.026V173.613C31.2741 175.997 30.6315 178.325 29.4307 180.29C28.2299 182.255 26.5273 183.766 24.5473 184.622L0.321766 195.089C-4.53063 197.185 -9.90289 197.185 -14.7553 195.089L-38.9808 184.63C-40.9622 183.775 -42.6663 182.265 -43.8684 180.3C-45.0704 178.334 -45.7141 176.006 -45.7144 173.621V136.034C-45.7141 133.649 -45.0704 131.321 -43.8684 129.356C-42.6663 127.39 -40.9622 125.88 -38.9808 125.025L-14.7553 114.551ZM17.9187 137.473C17.5852 136.5 16.9216 135.716 16.0737 135.293C15.2258 134.87 14.263 134.842 13.3969 135.216L-7.21676 144.125L-27.8375 135.216C-28.269 135.016 -28.7318 134.914 -29.1988 134.917C-29.6658 134.921 -30.1274 135.029 -30.5566 135.236C-30.9857 135.443 -31.3736 135.745 -31.6974 136.123C-32.0213 136.5 -32.2745 136.947 -32.4422 137.437C-32.6099 137.927 -32.6887 138.449 -32.6739 138.973C-32.6591 139.498 -32.5511 140.014 -32.3561 140.49C-32.1612 140.967 -31.8833 141.395 -31.5388 141.749C-31.1943 142.104 -30.7902 142.377 -30.3503 142.553L-10.7165 151.037V170.617C-10.7165 171.66 -10.3478 172.66 -9.69148 173.398C-9.03514 174.135 -8.14496 174.549 -7.21676 174.549C-6.28856 174.549 -5.39838 174.135 -4.74204 173.398C-4.08571 172.66 -3.71698 171.66 -3.71698 170.617V151.037L15.9098 142.553C16.7756 142.178 17.4736 141.433 17.8503 140.48C18.227 139.528 18.2516 138.446 17.9187 137.473Z" fill="white" fill-opacity="0.09"/>
</g>
<path d="M100.186 21.014C97.7761 20.037 95.0807 20.037 92.6711 21.014L86.8311 23.382L112.41 33.3286L121.407 29.854C121.037 29.5497 120.624 29.3025 120.18 29.1206L100.186 21.014ZM123.095 33.4886L98.4284 43.0193V49.1526C100.048 47.4131 102.008 46.0262 104.188 45.0787C106.367 44.1312 108.719 43.6435 111.095 43.646C115.754 43.646 119.98 45.4833 123.095 48.4726V33.4886ZM94.4284 43.0193V56.206C93.9847 57.7591 93.7603 59.3667 93.7617 60.982C93.7617 62.638 93.9937 64.2406 94.4284 65.7553V72.1473C93.8284 72.0212 93.2405 71.8437 92.6711 71.6166L72.6764 63.51C71.8151 63.1611 71.0776 62.5631 70.5584 61.7925C70.0391 61.0219 69.7617 60.1139 69.7617 59.1846V33.4913L94.4284 43.0193ZM71.4497 29.854L96.4284 39.5046L106.874 35.4673L81.4257 25.574L72.6764 29.1206C72.2213 29.3055 71.8124 29.55 71.4497 29.854ZM125.762 60.9793C125.762 57.0895 124.216 53.3589 121.466 50.6084C118.715 47.8579 114.985 46.3126 111.095 46.3126C107.205 46.3126 103.475 47.8579 100.724 50.6084C97.9736 53.3589 96.4284 57.0895 96.4284 60.9793C96.4284 64.8691 97.9736 68.5997 100.724 71.3502C103.475 74.1007 107.205 75.646 111.095 75.646C114.985 75.646 118.715 74.1007 121.466 71.3502C124.216 68.5997 125.762 64.8691 125.762 60.9793ZM111.207 51.6513L111.436 51.6913L111.604 51.7446L111.786 51.838L111.911 51.9233L118.706 58.702L118.858 58.8886C119.033 59.1453 119.114 59.4553 119.085 59.765C119.056 60.0746 118.92 60.3645 118.7 60.5844C118.48 60.8043 118.19 60.9404 117.881 60.9692C117.571 60.998 117.261 60.9176 117.004 60.742L116.818 60.59L112.428 56.198V70.3153L112.407 70.5553C112.358 70.8217 112.23 71.067 112.038 71.2585C111.847 71.45 111.601 71.5786 111.335 71.6273L111.095 71.6486L110.855 71.6273C110.589 71.5786 110.343 71.45 110.152 71.2585C109.96 71.067 109.832 70.8217 109.783 70.5553L109.762 70.3126L109.759 56.2006L105.372 60.59L105.186 60.742C104.963 60.8956 104.699 60.9779 104.428 60.9779C104.158 60.9779 103.894 60.8956 103.671 60.742L103.484 60.59L103.332 60.4033C103.179 60.1806 103.096 59.9165 103.096 59.646C103.096 59.3754 103.179 59.1113 103.332 58.8886L103.484 58.702L110.186 52.0033L110.335 51.8833L110.532 51.7713L110.754 51.6913L110.914 51.6593L111.063 51.646L111.207 51.6513Z" fill="white"/>
<rect x="96.4285" y="46.3125" width="29" height="29" rx="14.5" fill="white"/>
<path d="M116.5 61.7411H111.857V66.3839C111.857 66.6302 111.759 66.8664 111.585 67.0405C111.411 67.2147 111.175 67.3125 110.928 67.3125C110.682 67.3125 110.446 67.2147 110.272 67.0405C110.098 66.8664 110 66.6302 110 66.3839V61.7411H105.357C105.111 61.7411 104.875 61.6432 104.7 61.4691C104.526 61.295 104.428 61.0588 104.428 60.8125C104.428 60.5662 104.526 60.33 104.7 60.1559C104.875 59.9818 105.111 59.8839 105.357 59.8839H110V55.2411C110 54.9948 110.098 54.7586 110.272 54.5845C110.446 54.4103 110.682 54.3125 110.928 54.3125C111.175 54.3125 111.411 54.4103 111.585 54.5845C111.759 54.7586 111.857 54.9948 111.857 55.2411V59.8839H116.5C116.746 59.8839 116.982 59.9818 117.156 60.1559C117.331 60.33 117.428 60.5662 117.428 60.8125C117.428 61.0588 117.331 61.295 117.156 61.4691C116.982 61.6432 116.746 61.7411 116.5 61.7411Z" fill="#81C784"/>
<path d="M116.5 61.7411H111.857V66.3839C111.857 66.6302 111.759 66.8664 111.585 67.0405C111.411 67.2147 111.175 67.3125 110.928 67.3125C110.682 67.3125 110.446 67.2147 110.272 67.0405C110.098 66.8664 110 66.6302 110 66.3839V61.7411H105.357C105.111 61.7411 104.875 61.6432 104.7 61.4691C104.526 61.295 104.428 61.0588 104.428 60.8125C104.428 60.5662 104.526 60.33 104.7 60.1559C104.875 59.9818 105.111 59.8839 105.357 59.8839H110V55.2411C110 54.9948 110.098 54.7586 110.272 54.5845C110.446 54.4103 110.682 54.3125 110.928 54.3125C111.175 54.3125 111.411 54.4103 111.585 54.5845C111.759 54.7586 111.857 54.9948 111.857 55.2411V59.8839H116.5C116.746 59.8839 116.982 59.9818 117.156 60.1559C117.331 60.33 117.428 60.5662 117.428 60.8125C117.428 61.0588 117.331 61.295 117.156 61.4691C116.982 61.6432 116.746 61.7411 116.5 61.7411Z" fill="black" fill-opacity="0.2"/>
<path d="M63.4471 108.312V93.4125H69.7271C70.6604 93.4125 71.4671 93.5792 72.1471 93.9125C72.8271 94.2325 73.3471 94.6992 73.7071 95.3125C74.0671 95.9125 74.2471 96.6258 74.2471 97.4525C74.2471 98.1725 74.0604 98.8325 73.6871 99.4325C73.3271 100.019 72.7604 100.486 71.9871 100.832V99.8325C72.6671 100.099 73.2204 100.439 73.6471 100.852C74.0738 101.252 74.3804 101.706 74.5671 102.212C74.7671 102.719 74.8671 103.252 74.8671 103.812C74.8671 105.212 74.4071 106.312 73.4871 107.112C72.5804 107.912 71.3338 108.312 69.7471 108.312H63.4471ZM65.8071 106.212H69.9271C70.7138 106.212 71.3404 105.999 71.8071 105.572C72.2738 105.132 72.5071 104.552 72.5071 103.832C72.5071 103.099 72.2738 102.519 71.8071 102.092C71.3404 101.652 70.7138 101.432 69.9271 101.432H65.8071V106.212ZM65.8071 99.3525H69.7871C70.4271 99.3525 70.9404 99.1725 71.3271 98.8125C71.7138 98.4392 71.9071 97.9525 71.9071 97.3525C71.9071 96.7525 71.7138 96.2858 71.3271 95.9525C70.9404 95.6192 70.4271 95.4525 69.7871 95.4525H65.8071V99.3525ZM80.3147 108.553C79.5814 108.553 78.9347 108.426 78.3747 108.172C77.8281 107.906 77.4014 107.546 77.0947 107.092C76.7881 106.626 76.6347 106.079 76.6347 105.452C76.6347 104.866 76.7614 104.339 77.0147 103.872C77.2814 103.406 77.6881 103.012 78.2347 102.692C78.7814 102.372 79.4681 102.146 80.2947 102.012L84.0547 101.392V103.173L80.7347 103.752C80.1347 103.859 79.6947 104.052 79.4147 104.332C79.1347 104.599 78.9947 104.946 78.9947 105.373C78.9947 105.786 79.1481 106.126 79.4547 106.392C79.7747 106.646 80.1814 106.772 80.6747 106.772C81.2881 106.772 81.8214 106.639 82.2747 106.372C82.7414 106.106 83.1014 105.752 83.3547 105.312C83.6081 104.859 83.7347 104.359 83.7347 103.812V101.032C83.7347 100.499 83.5347 100.066 83.1347 99.7325C82.7481 99.3858 82.2281 99.2125 81.5747 99.2125C80.9747 99.2125 80.4481 99.3725 79.9947 99.6925C79.5547 99.9992 79.2281 100.399 79.0147 100.892L77.1347 99.9525C77.3347 99.4192 77.6614 98.9525 78.1147 98.5525C78.5681 98.1392 79.0947 97.8192 79.6947 97.5925C80.3081 97.3658 80.9547 97.2525 81.6347 97.2525C82.4881 97.2525 83.2414 97.4125 83.8947 97.7325C84.5614 98.0525 85.0747 98.4992 85.4347 99.0725C85.8081 99.6325 85.9947 100.286 85.9947 101.032V108.312H83.8347V106.352L84.2947 106.412C84.0414 106.852 83.7147 107.232 83.3147 107.552C82.9281 107.872 82.4814 108.119 81.9747 108.292C81.4814 108.466 80.9281 108.553 80.3147 108.553ZM88.6372 108.312V97.4925H90.7972V99.6725L90.5972 99.3525C90.8372 98.6458 91.2239 98.1392 91.7572 97.8325C92.2906 97.5125 92.9306 97.3525 93.6772 97.3525H94.3372V99.4125H93.3972C92.6506 99.4125 92.0439 99.6458 91.5772 100.112C91.1239 100.566 90.8972 101.219 90.8972 102.072V108.312H88.6372ZM99.1233 108.553C98.39 108.553 97.7433 108.426 97.1833 108.172C96.6367 107.906 96.21 107.546 95.9033 107.092C95.5967 106.626 95.4433 106.079 95.4433 105.452C95.4433 104.866 95.57 104.339 95.8233 103.872C96.09 103.406 96.4967 103.012 97.0433 102.692C97.59 102.372 98.2767 102.146 99.1033 102.012L102.863 101.392V103.173L99.5433 103.752C98.9433 103.859 98.5033 104.052 98.2233 104.332C97.9433 104.599 97.8033 104.946 97.8033 105.373C97.8033 105.786 97.9567 106.126 98.2633 106.392C98.5833 106.646 98.99 106.772 99.4833 106.772C100.097 106.772 100.63 106.639 101.083 106.372C101.55 106.106 101.91 105.752 102.163 105.312C102.417 104.859 102.543 104.359 102.543 103.812V101.032C102.543 100.499 102.343 100.066 101.943 99.7325C101.557 99.3858 101.037 99.2125 100.383 99.2125C99.7833 99.2125 99.2567 99.3725 98.8033 99.6925C98.3633 99.9992 98.0367 100.399 97.8233 100.892L95.9433 99.9525C96.1433 99.4192 96.47 98.9525 96.9233 98.5525C97.3767 98.1392 97.9033 97.8192 98.5033 97.5925C99.1167 97.3658 99.7633 97.2525 100.443 97.2525C101.297 97.2525 102.05 97.4125 102.703 97.7325C103.37 98.0525 103.883 98.4992 104.243 99.0725C104.617 99.6325 104.803 100.286 104.803 101.032V108.312H102.643V106.352L103.103 106.412C102.85 106.852 102.523 107.232 102.123 107.552C101.737 107.872 101.29 108.119 100.783 108.292C100.29 108.466 99.7367 108.553 99.1233 108.553ZM107.446 108.312V97.4925H109.606V99.6125L109.346 99.3325C109.613 98.6525 110.039 98.1392 110.626 97.7925C111.213 97.4325 111.893 97.2525 112.666 97.2525C113.466 97.2525 114.173 97.4258 114.786 97.7725C115.399 98.1192 115.879 98.5992 116.226 99.2125C116.573 99.8258 116.746 100.532 116.746 101.332V108.312H114.506V101.932C114.506 101.386 114.406 100.926 114.206 100.552C114.006 100.166 113.719 99.8725 113.346 99.6725C112.986 99.4592 112.573 99.3525 112.106 99.3525C111.639 99.3525 111.219 99.4592 110.846 99.6725C110.486 99.8725 110.206 100.166 110.006 100.552C109.806 100.939 109.706 101.399 109.706 101.932V108.312H107.446ZM124.385 112.713C123.598 112.713 122.871 112.586 122.205 112.333C121.538 112.079 120.965 111.726 120.485 111.273C120.005 110.833 119.645 110.313 119.405 109.713L121.485 108.853C121.671 109.359 122.011 109.779 122.505 110.113C123.011 110.446 123.631 110.613 124.365 110.613C124.938 110.613 125.451 110.499 125.905 110.273C126.358 110.059 126.718 109.739 126.985 109.313C127.251 108.899 127.385 108.399 127.385 107.812V105.373L127.785 105.832C127.411 106.526 126.891 107.052 126.225 107.412C125.571 107.772 124.831 107.952 124.005 107.952C123.005 107.952 122.105 107.719 121.305 107.252C120.505 106.786 119.871 106.146 119.405 105.332C118.951 104.519 118.725 103.606 118.725 102.592C118.725 101.566 118.951 100.652 119.405 99.8525C119.871 99.0525 120.498 98.4192 121.285 97.9525C122.071 97.4858 122.971 97.2525 123.985 97.2525C124.811 97.2525 125.545 97.4325 126.185 97.7925C126.838 98.1392 127.371 98.6458 127.785 99.3125L127.485 99.8725V97.4925H129.625V107.812C129.625 108.746 129.398 109.579 128.945 110.313C128.505 111.059 127.891 111.646 127.105 112.073C126.318 112.499 125.411 112.713 124.385 112.713ZM124.265 105.852C124.865 105.852 125.398 105.712 125.865 105.432C126.331 105.139 126.698 104.752 126.965 104.272C127.245 103.779 127.385 103.226 127.385 102.612C127.385 101.999 127.245 101.446 126.965 100.952C126.685 100.459 126.311 100.072 125.845 99.7925C125.378 99.4992 124.851 99.3525 124.265 99.3525C123.651 99.3525 123.105 99.4992 122.625 99.7925C122.145 100.072 121.765 100.459 121.485 100.952C121.218 101.432 121.085 101.986 121.085 102.612C121.085 103.212 121.218 103.759 121.485 104.252C121.765 104.746 122.145 105.139 122.625 105.432C123.105 105.712 123.651 105.852 124.265 105.852ZM66.7967 136.312V121.412H68.9967L74.5967 129.172H73.4967L78.9967 121.412H81.1967V136.312H78.8567V124.192L79.7367 124.432L74.1167 132.112H73.8767L68.3767 124.432L69.1567 124.192V136.312H66.7967ZM87.2972 136.553C86.5638 136.553 85.9172 136.426 85.3572 136.172C84.8105 135.906 84.3838 135.546 84.0772 135.092C83.7705 134.626 83.6172 134.079 83.6172 133.452C83.6172 132.866 83.7438 132.339 83.9972 131.872C84.2638 131.406 84.6705 131.012 85.2172 130.692C85.7638 130.372 86.4505 130.146 87.2772 130.012L91.0372 129.392V131.173L87.7172 131.752C87.1172 131.859 86.6772 132.052 86.3972 132.332C86.1172 132.599 85.9772 132.946 85.9772 133.373C85.9772 133.786 86.1305 134.126 86.4372 134.392C86.7572 134.646 87.1638 134.772 87.6572 134.772C88.2705 134.772 88.8038 134.639 89.2572 134.372C89.7238 134.106 90.0838 133.752 90.3372 133.312C90.5905 132.859 90.7172 132.359 90.7172 131.812V129.032C90.7172 128.499 90.5172 128.066 90.1172 127.732C89.7305 127.386 89.2105 127.212 88.5572 127.212C87.9572 127.212 87.4305 127.372 86.9772 127.692C86.5372 127.999 86.2105 128.399 85.9972 128.892L84.1172 127.952C84.3172 127.419 84.6438 126.952 85.0972 126.552C85.5505 126.139 86.0772 125.819 86.6772 125.592C87.2905 125.366 87.9372 125.252 88.6172 125.252C89.4705 125.252 90.2238 125.412 90.8772 125.732C91.5438 126.052 92.0572 126.499 92.4172 127.072C92.7905 127.632 92.9772 128.286 92.9772 129.032V136.312H90.8172V134.352L91.2772 134.412C91.0238 134.852 90.6972 135.232 90.2972 135.552C89.9105 135.872 89.4638 136.119 88.9572 136.292C88.4638 136.466 87.9105 136.553 87.2972 136.553ZM99.6197 136.553C98.513 136.553 97.5397 136.279 96.6997 135.732C95.873 135.186 95.293 134.452 94.9597 133.532L96.6997 132.712C96.993 133.326 97.393 133.812 97.8997 134.172C98.4197 134.532 98.993 134.712 99.6197 134.712C100.153 134.712 100.586 134.592 100.92 134.352C101.253 134.112 101.42 133.786 101.42 133.373C101.42 133.106 101.346 132.892 101.2 132.732C101.053 132.559 100.866 132.419 100.64 132.312C100.426 132.206 100.206 132.126 99.9797 132.072L98.2797 131.592C97.3463 131.326 96.6463 130.926 96.1797 130.392C95.7263 129.846 95.4997 129.212 95.4997 128.492C95.4997 127.839 95.6663 127.272 95.9997 126.792C96.333 126.299 96.793 125.919 97.3797 125.652C97.9663 125.386 98.6263 125.252 99.3597 125.252C100.346 125.252 101.226 125.499 102 125.992C102.773 126.472 103.32 127.146 103.64 128.012L101.9 128.832C101.686 128.312 101.346 127.899 100.88 127.592C100.426 127.286 99.913 127.132 99.3397 127.132C98.8463 127.132 98.453 127.252 98.1597 127.492C97.8663 127.719 97.7197 128.019 97.7197 128.392C97.7197 128.646 97.7863 128.859 97.9197 129.032C98.053 129.192 98.2263 129.326 98.4397 129.432C98.653 129.526 98.873 129.606 99.0997 129.672L100.86 130.192C101.753 130.446 102.44 130.846 102.92 131.392C103.4 131.926 103.64 132.566 103.64 133.312C103.64 133.952 103.466 134.519 103.12 135.012C102.786 135.492 102.32 135.872 101.72 136.152C101.12 136.419 100.42 136.553 99.6197 136.553ZM109.714 136.553C108.901 136.553 108.187 136.372 107.574 136.012C106.961 135.639 106.481 135.126 106.134 134.472C105.801 133.806 105.634 133.039 105.634 132.172V125.492H107.894V131.972C107.894 132.466 107.994 132.899 108.194 133.272C108.394 133.646 108.674 133.939 109.034 134.152C109.394 134.352 109.807 134.452 110.274 134.452C110.754 134.452 111.174 134.346 111.534 134.132C111.894 133.919 112.174 133.619 112.374 133.232C112.587 132.846 112.694 132.392 112.694 131.872V125.492H114.934V136.312H112.794V134.192L113.034 134.472C112.781 135.139 112.361 135.652 111.774 136.012C111.187 136.372 110.501 136.553 109.714 136.553ZM117.573 136.312V121.172H119.833V131.312L118.953 131.092L124.373 125.492H127.193L123.113 129.832L127.373 136.312H124.773L120.973 130.572L122.313 130.392L119.113 133.792L119.833 132.292V136.312H117.573Z" fill="white"/>
</svg>
