<svg width="191" height="165" viewBox="0 0 191 165" fill="none" xmlns="http://www.w3.org/2000/svg">
<rect width="190.143" height="165" rx="20" fill="#FFBF00"/>
<mask id="mask0_478_55" style="mask-type:alpha" maskUnits="userSpaceOnUse" x="0" y="0" width="191" height="165">
<rect width="190.143" height="165" rx="20" fill="#81C784"/>
<rect width="190.143" height="165" rx="20" fill="black" fill-opacity="0.2"/>
</mask>
<g mask="url(#mask0_478_55)">
</g>
<mask id="mask1_478_55" style="mask-type:alpha" maskUnits="userSpaceOnUse" x="0" y="0" width="191" height="165">
<rect width="190.143" height="165" rx="20" fill="#81C784"/>
<rect width="190.143" height="165" rx="20" fill="black" fill-opacity="0.2"/>
</mask>
<g mask="url(#mask1_478_55)">
<path d="M35.2778 76.8919C30.4254 74.7951 25.0532 74.7951 20.2008 76.8919L-4.02471 87.3582C-6.00609 88.2135 -7.7102 89.7233 -8.91229 91.6886C-10.1144 93.654 -10.758 95.9824 -10.7583 98.367V107.017C-6.17471 106.367 -1.5193 107.002 2.79286 108.865L27.0114 119.339C30.3142 120.763 33.1551 123.279 35.1594 126.554C37.1637 129.829 38.2373 133.71 38.2386 137.684V175.272C38.2388 176.851 38.0696 178.424 37.7347 179.958L59.5103 170.554C61.4917 169.698 63.1958 168.188 64.3979 166.223C65.6 164.258 66.2436 161.929 66.2439 159.545V98.367C66.2436 95.9824 65.6 93.654 64.3979 91.6886C63.1958 89.7233 61.4917 88.2135 59.5103 87.3582L35.2778 76.8919ZM48.353 93.8298C48.7823 93.6445 49.2398 93.5559 49.6996 93.5692C50.1593 93.5825 50.6122 93.6974 51.0324 93.9073C51.4526 94.1172 51.8319 94.4181 52.1486 94.7927C52.4653 95.1673 52.7132 95.6083 52.8782 96.0906C53.0432 96.5728 53.1221 97.0868 53.1102 97.6033C53.0984 98.1198 52.9961 98.6286 52.8093 99.1006C52.6224 99.5727 52.3546 99.9988 52.0211 100.355C51.6877 100.71 51.2951 100.989 50.8659 101.174L31.5051 109.533C29.0789 110.582 26.3927 110.582 23.9665 109.533L4.60575 101.174C3.73881 100.799 3.04013 100.052 2.66339 99.0979C2.28665 98.1437 2.26272 97.0606 2.59688 96.0866C2.93103 95.1127 3.59588 94.3278 4.44518 93.9045C5.29448 93.4813 6.25866 93.4544 7.1256 93.8298L26.4794 102.197C27.2902 102.548 28.1884 102.548 28.9992 102.197L48.353 93.8298ZM-14.797 116.209C-9.94464 114.112 -4.57238 114.112 0.280018 116.209L24.5055 126.675C28.5653 128.429 31.2321 132.809 31.2321 137.684V175.272C31.2323 177.655 30.5898 179.983 29.389 181.948C28.1882 183.914 26.4856 185.424 24.5055 186.28L0.280018 196.747C-4.57238 198.844 -9.94464 198.844 -14.797 196.747L-39.0225 186.288C-41.0039 185.433 -42.708 183.923 -43.9101 181.958C-45.1122 179.993 -45.7558 177.664 -45.7561 175.28V137.692C-45.7558 135.308 -45.1122 132.979 -43.9101 131.014C-42.708 129.048 -41.0039 127.539 -39.0225 126.683L-14.797 116.209ZM17.8769 139.131C17.5435 138.159 16.8798 137.374 16.0319 136.951C15.184 136.528 14.2212 136.5 13.3552 136.874L-7.25851 145.784L-27.8792 136.874C-28.3107 136.674 -28.7736 136.572 -29.2406 136.576C-29.7075 136.579 -30.1692 136.687 -30.5983 136.894C-31.0274 137.101 -31.4153 137.403 -31.7392 137.781C-32.063 138.159 -32.3162 138.606 -32.484 139.095C-32.6517 139.585 -32.7304 140.107 -32.7157 140.632C-32.7009 141.156 -32.5928 141.672 -32.3979 142.149C-32.2029 142.625 -31.925 143.053 -31.5806 143.408C-31.2361 143.762 -30.832 144.035 -30.3921 144.211L-10.7583 152.696V172.276C-10.7583 173.318 -10.3896 174.318 -9.73323 175.056C-9.07689 175.793 -8.18671 176.207 -7.25851 176.207C-6.33031 176.207 -5.44013 175.793 -4.78379 175.056C-4.12745 174.318 -3.75873 173.318 -3.75873 172.276V152.696L15.868 144.211C16.7339 143.836 17.4318 143.091 17.8085 142.138C18.1852 141.186 18.2098 140.104 17.8769 139.131Z" fill="white" fill-opacity="0.18"/>
</g>
<path d="M99.2358 21.7015C96.8261 20.7245 94.1307 20.7245 91.7211 21.7015L85.8811 24.0695L111.46 34.0161L120.457 30.5415C120.087 30.2372 119.674 29.99 119.23 29.8081L99.2358 21.7015ZM122.145 34.1761L97.4784 43.7068V49.8401C99.0976 48.1006 101.058 46.7137 103.238 45.7662C105.417 44.8187 107.769 44.331 110.145 44.3335C114.804 44.3335 119.03 46.1708 122.145 49.1601V34.1761ZM93.4784 43.7068V56.8935C93.0348 58.4466 92.8104 60.0542 92.8118 61.6695C92.8118 63.3255 93.0438 64.9281 93.4784 66.4428V72.8348C92.8785 72.7087 92.2905 72.5312 91.7211 72.3041L71.7264 64.1975C70.8652 63.8486 70.1277 63.2506 69.6084 62.48C69.0892 61.7094 68.8118 60.8014 68.8118 59.8721V34.1788L93.4784 43.7068ZM70.4998 30.5415L95.4784 40.1921L105.924 36.1548L80.4758 26.2615L71.7264 29.8081C71.2713 29.993 70.8624 30.2375 70.4998 30.5415ZM124.812 61.6668C124.812 57.777 123.267 54.0464 120.516 51.2959C117.765 48.5454 114.035 47.0001 110.145 47.0001C106.255 47.0001 102.525 48.5454 99.7742 51.2959C97.0237 54.0464 95.4784 57.777 95.4784 61.6668C95.4784 65.5566 97.0237 69.2872 99.7742 72.0377C102.525 74.7882 106.255 76.3335 110.145 76.3335C114.035 76.3335 117.765 74.7882 120.516 72.0377C123.267 69.2872 124.812 65.5566 124.812 61.6668ZM110.257 52.3388L110.486 52.3788L110.654 52.4321L110.836 52.5255L110.961 52.6108L117.756 59.3895L117.908 59.5761C118.083 59.8328 118.164 60.1428 118.135 60.4525C118.106 60.7621 117.97 61.052 117.75 61.2719C117.53 61.4918 117.24 61.6279 116.931 61.6567C116.621 61.6855 116.311 61.6051 116.054 61.4295L115.868 61.2775L111.478 56.8855V71.0028L111.457 71.2428C111.408 71.5092 111.28 71.7545 111.088 71.946C110.897 72.1375 110.652 72.2661 110.385 72.3148L110.145 72.3361L109.905 72.3148C109.639 72.2661 109.393 72.1375 109.202 71.946C109.01 71.7545 108.882 71.5092 108.833 71.2428L108.812 71.0001L108.809 56.8881L104.422 61.2775L104.236 61.4295C104.013 61.5831 103.749 61.6654 103.478 61.6654C103.208 61.6654 102.944 61.5831 102.721 61.4295L102.534 61.2775L102.382 61.0908C102.229 60.8681 102.146 60.604 102.146 60.3335C102.146 60.0629 102.229 59.7988 102.382 59.5761L102.534 59.3895L109.236 52.6908L109.385 52.5708L109.582 52.4588L109.804 52.3788L109.964 52.3468L110.113 52.3335L110.257 52.3388Z" fill="white"/>
<rect x="95.4785" y="47" width="29" height="29" rx="14.5" fill="white"/>
<path d="M115.979 62.498H103.979C103.713 62.498 103.459 62.3927 103.271 62.2052C103.084 62.0176 102.979 61.7633 102.979 61.498C102.979 61.2328 103.084 60.9785 103.271 60.7909C103.459 60.6034 103.713 60.498 103.979 60.498H115.979C116.244 60.498 116.498 60.6034 116.686 60.7909C116.873 60.9785 116.979 61.2328 116.979 61.498C116.979 61.7633 116.873 62.0176 116.686 62.2052C116.498 62.3927 116.244 62.498 115.979 62.498Z" fill="#FFBF00"/>
<path d="M62.497 109V94.1H68.777C69.7104 94.1 70.517 94.2667 71.197 94.6C71.877 94.92 72.397 95.3867 72.757 96C73.117 96.6 73.297 97.3133 73.297 98.14C73.297 98.86 73.1104 99.52 72.737 100.12C72.377 100.707 71.8104 101.173 71.037 101.52V100.52C71.717 100.787 72.2704 101.127 72.697 101.54C73.1237 101.94 73.4304 102.393 73.617 102.9C73.817 103.407 73.917 103.94 73.917 104.5C73.917 105.9 73.457 107 72.537 107.8C71.6304 108.6 70.3837 109 68.797 109H62.497ZM64.857 106.9H68.977C69.7637 106.9 70.3904 106.687 70.857 106.26C71.3237 105.82 71.557 105.24 71.557 104.52C71.557 103.787 71.3237 103.207 70.857 102.78C70.3904 102.34 69.7637 102.12 68.977 102.12H64.857V106.9ZM64.857 100.04H68.837C69.477 100.04 69.9904 99.86 70.377 99.5C70.7637 99.1267 70.957 98.64 70.957 98.04C70.957 97.44 70.7637 96.9733 70.377 96.64C69.9904 96.3067 69.477 96.14 68.837 96.14H64.857V100.04ZM79.3647 109.24C78.6313 109.24 77.9847 109.113 77.4247 108.86C76.878 108.593 76.4513 108.233 76.1447 107.78C75.838 107.313 75.6847 106.767 75.6847 106.14C75.6847 105.553 75.8113 105.027 76.0647 104.56C76.3313 104.093 76.738 103.7 77.2847 103.38C77.8313 103.06 78.518 102.833 79.3447 102.7L83.1047 102.08V103.86L79.7847 104.44C79.1847 104.547 78.7447 104.74 78.4647 105.02C78.1847 105.287 78.0447 105.633 78.0447 106.06C78.0447 106.473 78.198 106.813 78.5047 107.08C78.8247 107.333 79.2313 107.46 79.7247 107.46C80.338 107.46 80.8713 107.327 81.3247 107.06C81.7913 106.793 82.1513 106.44 82.4047 106C82.658 105.547 82.7847 105.047 82.7847 104.5V101.72C82.7847 101.187 82.5847 100.753 82.1847 100.42C81.798 100.073 81.278 99.9 80.6247 99.9C80.0247 99.9 79.498 100.06 79.0447 100.38C78.6047 100.687 78.278 101.087 78.0647 101.58L76.1847 100.64C76.3847 100.107 76.7113 99.64 77.1647 99.24C77.618 98.8267 78.1447 98.5067 78.7447 98.28C79.358 98.0533 80.0047 97.94 80.6847 97.94C81.538 97.94 82.2913 98.1 82.9447 98.42C83.6113 98.74 84.1247 99.1867 84.4847 99.76C84.858 100.32 85.0447 100.973 85.0447 101.72V109H82.8847V107.04L83.3447 107.1C83.0913 107.54 82.7647 107.92 82.3647 108.24C81.978 108.56 81.5313 108.807 81.0247 108.98C80.5313 109.153 79.978 109.24 79.3647 109.24ZM87.6872 109V98.18H89.8472V100.36L89.6472 100.04C89.8872 99.3333 90.2738 98.8267 90.8072 98.52C91.3405 98.2 91.9805 98.04 92.7272 98.04H93.3872V100.1H92.4472C91.7005 100.1 91.0938 100.333 90.6272 100.8C90.1738 101.253 89.9472 101.907 89.9472 102.76V109H87.6872ZM98.1733 109.24C97.4399 109.24 96.7933 109.113 96.2333 108.86C95.6866 108.593 95.2599 108.233 94.9533 107.78C94.6466 107.313 94.4933 106.767 94.4933 106.14C94.4933 105.553 94.6199 105.027 94.8733 104.56C95.1399 104.093 95.5466 103.7 96.0933 103.38C96.6399 103.06 97.3266 102.833 98.1533 102.7L101.913 102.08V103.86L98.5933 104.44C97.9933 104.547 97.5533 104.74 97.2733 105.02C96.9933 105.287 96.8533 105.633 96.8533 106.06C96.8533 106.473 97.0066 106.813 97.3133 107.08C97.6333 107.333 98.0399 107.46 98.5333 107.46C99.1466 107.46 99.6799 107.327 100.133 107.06C100.6 106.793 100.96 106.44 101.213 106C101.467 105.547 101.593 105.047 101.593 104.5V101.72C101.593 101.187 101.393 100.753 100.993 100.42C100.607 100.073 100.087 99.9 99.4333 99.9C98.8333 99.9 98.3066 100.06 97.8533 100.38C97.4133 100.687 97.0866 101.087 96.8733 101.58L94.9933 100.64C95.1933 100.107 95.5199 99.64 95.9733 99.24C96.4266 98.8267 96.9533 98.5067 97.5533 98.28C98.1666 98.0533 98.8133 97.94 99.4933 97.94C100.347 97.94 101.1 98.1 101.753 98.42C102.42 98.74 102.933 99.1867 103.293 99.76C103.667 100.32 103.853 100.973 103.853 101.72V109H101.693V107.04L102.153 107.1C101.9 107.54 101.573 107.92 101.173 108.24C100.787 108.56 100.34 108.807 99.8333 108.98C99.3399 109.153 98.7866 109.24 98.1733 109.24ZM106.496 109V98.18H108.656V100.3L108.396 100.02C108.662 99.34 109.089 98.8267 109.676 98.48C110.262 98.12 110.942 97.94 111.716 97.94C112.516 97.94 113.222 98.1133 113.836 98.46C114.449 98.8067 114.929 99.2867 115.276 99.9C115.622 100.513 115.796 101.22 115.796 102.02V109H113.556V102.62C113.556 102.073 113.456 101.613 113.256 101.24C113.056 100.853 112.769 100.56 112.396 100.36C112.036 100.147 111.622 100.04 111.156 100.04C110.689 100.04 110.269 100.147 109.896 100.36C109.536 100.56 109.256 100.853 109.056 101.24C108.856 101.627 108.756 102.087 108.756 102.62V109H106.496ZM123.435 113.4C122.648 113.4 121.921 113.273 121.255 113.02C120.588 112.767 120.015 112.413 119.535 111.96C119.055 111.52 118.695 111 118.455 110.4L120.535 109.54C120.721 110.047 121.061 110.467 121.555 110.8C122.061 111.133 122.681 111.3 123.415 111.3C123.988 111.3 124.501 111.187 124.955 110.96C125.408 110.747 125.768 110.427 126.035 110C126.301 109.587 126.435 109.087 126.435 108.5V106.06L126.835 106.52C126.461 107.213 125.941 107.74 125.275 108.1C124.621 108.46 123.881 108.64 123.055 108.64C122.055 108.64 121.155 108.407 120.355 107.94C119.555 107.473 118.921 106.833 118.455 106.02C118.001 105.207 117.775 104.293 117.775 103.28C117.775 102.253 118.001 101.34 118.455 100.54C118.921 99.74 119.548 99.1067 120.335 98.64C121.121 98.1733 122.021 97.94 123.035 97.94C123.861 97.94 124.595 98.12 125.235 98.48C125.888 98.8267 126.421 99.3333 126.835 100L126.535 100.56V98.18H128.675V108.5C128.675 109.433 128.448 110.267 127.995 111C127.555 111.747 126.941 112.333 126.155 112.76C125.368 113.187 124.461 113.4 123.435 113.4ZM123.315 106.54C123.915 106.54 124.448 106.4 124.915 106.12C125.381 105.827 125.748 105.44 126.015 104.96C126.295 104.467 126.435 103.913 126.435 103.3C126.435 102.687 126.295 102.133 126.015 101.64C125.735 101.147 125.361 100.76 124.895 100.48C124.428 100.187 123.901 100.04 123.315 100.04C122.701 100.04 122.155 100.187 121.675 100.48C121.195 100.76 120.815 101.147 120.535 101.64C120.268 102.12 120.135 102.673 120.135 103.3C120.135 103.9 120.268 104.447 120.535 104.94C120.815 105.433 121.195 105.827 121.675 106.12C122.155 106.4 122.701 106.54 123.315 106.54ZM66.6572 137V122.1H69.0172V130.18L68.3972 129.94L75.1372 122.1H78.0772L72.1172 129.08L72.2372 127.4L78.3172 137H75.5372L71.1772 130.18L69.0172 132.7V137H66.6572ZM84.5445 137.24C83.4645 137.24 82.5045 136.993 81.6645 136.5C80.8379 135.993 80.1912 135.313 79.7245 134.46C79.2579 133.593 79.0245 132.627 79.0245 131.56C79.0245 130.467 79.2579 129.5 79.7245 128.66C80.2045 127.82 80.8445 127.16 81.6445 126.68C82.4445 126.187 83.3512 125.94 84.3645 125.94C85.1779 125.94 85.9045 126.08 86.5445 126.36C87.1845 126.64 87.7245 127.027 88.1645 127.52C88.6045 128 88.9379 128.553 89.1645 129.18C89.4045 129.807 89.5245 130.473 89.5245 131.18C89.5245 131.353 89.5179 131.533 89.5045 131.72C89.4912 131.907 89.4645 132.08 89.4245 132.24H80.8045V130.44H88.1445L87.0645 131.26C87.1979 130.607 87.1512 130.027 86.9245 129.52C86.7112 129 86.3779 128.593 85.9245 128.3C85.4845 127.993 84.9645 127.84 84.3645 127.84C83.7645 127.84 83.2312 127.993 82.7645 128.3C82.2979 128.593 81.9379 129.02 81.6845 129.58C81.4312 130.127 81.3312 130.793 81.3845 131.58C81.3179 132.313 81.4179 132.953 81.6845 133.5C81.9645 134.047 82.3512 134.473 82.8445 134.78C83.3512 135.087 83.9245 135.24 84.5645 135.24C85.2179 135.24 85.7712 135.093 86.2245 134.8C86.6912 134.507 87.0579 134.127 87.3245 133.66L89.1645 134.56C88.9512 135.067 88.6179 135.527 88.1645 135.94C87.7245 136.34 87.1912 136.66 86.5645 136.9C85.9512 137.127 85.2779 137.24 84.5445 137.24ZM91.7301 137V121.86H93.9901V137H91.7301ZM100.492 137.24C99.6792 137.24 98.9658 137.06 98.3525 136.7C97.7392 136.327 97.2592 135.813 96.9125 135.16C96.5792 134.493 96.4125 133.727 96.4125 132.86V126.18H98.6725V132.66C98.6725 133.153 98.7725 133.587 98.9725 133.96C99.1725 134.333 99.4525 134.627 99.8125 134.84C100.172 135.04 100.586 135.14 101.052 135.14C101.532 135.14 101.952 135.033 102.312 134.82C102.672 134.607 102.952 134.307 103.152 133.92C103.366 133.533 103.472 133.08 103.472 132.56V126.18H105.712V137H103.572V134.88L103.812 135.16C103.559 135.827 103.139 136.34 102.552 136.7C101.966 137.06 101.279 137.24 100.492 137.24ZM111.591 137.24C110.858 137.24 110.211 137.113 109.651 136.86C109.105 136.593 108.678 136.233 108.371 135.78C108.065 135.313 107.911 134.767 107.911 134.14C107.911 133.553 108.038 133.027 108.291 132.56C108.558 132.093 108.965 131.7 109.511 131.38C110.058 131.06 110.745 130.833 111.571 130.7L115.331 130.08V131.86L112.011 132.44C111.411 132.547 110.971 132.74 110.691 133.02C110.411 133.287 110.271 133.633 110.271 134.06C110.271 134.473 110.425 134.813 110.731 135.08C111.051 135.333 111.458 135.46 111.951 135.46C112.565 135.46 113.098 135.327 113.551 135.06C114.018 134.793 114.378 134.44 114.631 134C114.885 133.547 115.011 133.047 115.011 132.5V129.72C115.011 129.187 114.811 128.753 114.411 128.42C114.025 128.073 113.505 127.9 112.851 127.9C112.251 127.9 111.725 128.06 111.271 128.38C110.831 128.687 110.505 129.087 110.291 129.58L108.411 128.64C108.611 128.107 108.938 127.64 109.391 127.24C109.845 126.827 110.371 126.507 110.971 126.28C111.585 126.053 112.231 125.94 112.911 125.94C113.765 125.94 114.518 126.1 115.171 126.42C115.838 126.74 116.351 127.187 116.711 127.76C117.085 128.32 117.271 128.973 117.271 129.72V137H115.111V135.04L115.571 135.1C115.318 135.54 114.991 135.92 114.591 136.24C114.205 136.56 113.758 136.807 113.251 136.98C112.758 137.153 112.205 137.24 111.591 137.24ZM119.914 137V126.18H122.074V128.36L121.874 128.04C122.114 127.333 122.5 126.827 123.034 126.52C123.567 126.2 124.207 126.04 124.954 126.04H125.614V128.1H124.674C123.927 128.1 123.32 128.333 122.854 128.8C122.4 129.253 122.174 129.907 122.174 130.76V137H119.914Z" fill="white"/>
</svg>
