<svg width="417" height="218" viewBox="0 0 417 218" fill="none" xmlns="http://www.w3.org/2000/svg">
<rect width="400" height="145" rx="16" transform="matrix(-1 0 0 1 417 60)" fill="#4CAF50"/>
<mask id="mask0_469_249" style="mask-type:alpha" maskUnits="userSpaceOnUse" x="17" y="60" width="400" height="145">
<rect width="400" height="145" rx="15" transform="matrix(-1 0 0 1 417 60)" fill="url(#paint0_linear_469_249)"/>
</mask>
<g mask="url(#mask0_469_249)">
<path fill-rule="evenodd" clip-rule="evenodd" d="M170.08 58.25C170.08 54.2459 166.834 51 162.83 51C158.826 51 155.58 54.2459 155.58 58.25V123C155.58 130.18 161.4 136 168.58 136H238.58C245.759 136 251.58 130.18 251.58 123V81.5H245.58C238.4 81.5 232.58 87.3203 232.58 94.5V104C232.58 113.389 224.969 121 215.58 121H187.08C177.691 121 170.08 113.389 170.08 104V58.25ZM255.58 123V81.5H270.08C277.259 81.5 283.08 87.3203 283.08 94.5V149C283.08 156.732 289.348 163 297.08 163C304.812 163 311.08 156.732 311.08 149V124C311.08 116.82 316.9 111 324.08 111H325.08C334.469 111 342.08 103.389 342.08 94V49H338.08V94C338.08 101.18 332.259 107 325.08 107H324.08C314.691 107 307.08 114.611 307.08 124V149C307.08 154.523 302.603 159 297.08 159C291.557 159 287.08 154.523 287.08 149V94.5C287.08 85.1112 279.469 77.5 270.08 77.5H255.58V49H251.58V77.5H245.58C236.191 77.5 228.58 85.1112 228.58 94.5V104C228.58 111.18 222.759 117 215.58 117H187.08C179.9 117 174.08 111.18 174.08 104V58.25C174.08 52.0368 169.043 47 162.83 47C156.617 47 151.58 52.0368 151.58 58.25V123C151.58 132.389 159.191 140 168.58 140H238.58C247.969 140 255.58 132.389 255.58 123ZM95.2112 53.8012C104.6 53.8012 112.211 61.4123 112.211 70.8012V91.8986C122.075 79.4977 142.455 86.3557 142.455 102.562V139.62H160.137V143.62H142.455V231.409C142.455 240.819 134.701 248.409 125.333 248.409C115.965 248.409 108.211 240.819 108.211 231.409V143.62H87.7666C85.3946 143.62 83.136 143.134 81.085 142.256L47.8278 188.76C38.2103 202.208 17 195.404 17 178.871V156.62C17 147.231 24.6112 139.62 34 139.62H53.5643V143.62H34C26.8203 143.62 21 149.44 21 156.62V178.871C21 191.514 37.2197 196.717 44.5742 186.433L77.6033 140.248C73.4533 137.149 70.7666 132.198 70.7666 126.62V70.8012C70.7666 61.4123 78.3778 53.8012 87.7666 53.8012H95.2112ZM114.881 94.9997L112.211 98.7325V139.62H138.455V102.562C138.455 89.9188 122.235 84.7159 114.881 94.9997ZM108.211 104.326V139.62H87.7666C86.267 139.62 84.8267 139.366 83.4863 138.899L108.211 104.326ZM108.211 97.4494L79.9309 136.994C76.7937 134.62 74.7666 130.857 74.7666 126.62V70.8012C74.7666 63.6215 80.5869 57.8012 87.7666 57.8012H95.2112C102.391 57.8012 108.211 63.6215 108.211 70.8012V97.4494ZM138.455 143.62H112.211V231.409C112.211 238.567 118.132 244.409 125.333 244.409C132.534 244.409 138.455 238.567 138.455 231.409V143.62Z" fill="url(#paint1_linear_469_249)"/>
</g>
<path d="M230.216 125.5V117.7L224.264 107.62H228.512L232.832 115.204H231.32L235.616 107.62H239.864L233.936 117.676V125.5H230.216ZM244.954 125.788C243.898 125.788 242.994 125.564 242.242 125.116C241.506 124.652 240.946 124.012 240.562 123.196C240.178 122.38 239.986 121.428 239.986 120.34V112.396H243.586V120.052C243.586 120.548 243.682 120.988 243.874 121.372C244.082 121.74 244.37 122.028 244.738 122.236C245.106 122.444 245.522 122.548 245.986 122.548C246.466 122.548 246.882 122.444 247.234 122.236C247.602 122.028 247.882 121.74 248.074 121.372C248.282 120.988 248.386 120.548 248.386 120.052V112.396H251.986V125.5H248.626V122.908L248.818 123.484C248.514 124.268 248.018 124.852 247.33 125.236C246.658 125.604 245.866 125.788 244.954 125.788ZM254.617 125.5V107.332H258.217V118.972L256.873 118.54L262.657 112.396H267.097L262.345 117.676L267.073 125.5H262.993L259.033 118.852L261.121 118.324L257.113 122.692L258.217 120.604V125.5H254.617ZM279.424 125.788C278.112 125.788 276.928 125.492 275.872 124.9C274.832 124.292 274 123.468 273.376 122.428C272.768 121.388 272.464 120.22 272.464 118.924C272.464 117.628 272.768 116.468 273.376 115.444C273.984 114.404 274.816 113.588 275.872 112.996C276.928 112.404 278.112 112.108 279.424 112.108C280.4 112.108 281.304 112.276 282.136 112.612C282.968 112.948 283.68 113.42 284.272 114.028C284.864 114.62 285.288 115.324 285.544 116.14L282.424 117.484C282.2 116.828 281.816 116.308 281.272 115.924C280.744 115.54 280.128 115.348 279.424 115.348C278.8 115.348 278.24 115.5 277.744 115.804C277.264 116.108 276.88 116.532 276.592 117.076C276.32 117.62 276.184 118.244 276.184 118.948C276.184 119.652 276.32 120.276 276.592 120.82C276.88 121.364 277.264 121.788 277.744 122.092C278.24 122.396 278.8 122.548 279.424 122.548C280.144 122.548 280.768 122.356 281.296 121.972C281.824 121.588 282.2 121.068 282.424 120.412L285.544 121.78C285.304 122.548 284.888 123.236 284.296 123.844C283.704 124.452 282.992 124.932 282.16 125.284C281.328 125.62 280.416 125.788 279.424 125.788ZM293.976 125.788C292.584 125.788 291.376 125.484 290.352 124.876C289.328 124.252 288.536 123.42 287.976 122.38C287.416 121.34 287.136 120.188 287.136 118.924C287.136 117.612 287.424 116.444 288 115.42C288.592 114.396 289.384 113.588 290.376 112.996C291.368 112.404 292.488 112.108 293.736 112.108C294.776 112.108 295.696 112.276 296.496 112.612C297.296 112.932 297.968 113.388 298.512 113.98C299.072 114.572 299.496 115.26 299.784 116.044C300.072 116.812 300.216 117.652 300.216 118.564C300.216 118.82 300.2 119.076 300.168 119.332C300.152 119.572 300.112 119.78 300.048 119.956H290.232V117.316H298.008L296.304 118.564C296.464 117.876 296.456 117.268 296.28 116.74C296.104 116.196 295.792 115.772 295.344 115.468C294.912 115.148 294.376 114.988 293.736 114.988C293.112 114.988 292.576 115.14 292.128 115.444C291.68 115.748 291.344 116.196 291.12 116.788C290.896 117.38 290.808 118.1 290.856 118.948C290.792 119.684 290.88 120.332 291.12 120.892C291.36 121.452 291.728 121.892 292.224 122.212C292.72 122.516 293.32 122.668 294.024 122.668C294.664 122.668 295.208 122.54 295.656 122.284C296.12 122.028 296.48 121.676 296.736 121.228L299.616 122.596C299.36 123.236 298.952 123.796 298.392 124.276C297.848 124.756 297.2 125.132 296.448 125.404C295.696 125.66 294.872 125.788 293.976 125.788ZM302.336 125.5V107.332H305.936V118.972L304.592 118.54L310.376 112.396H314.816L310.064 117.676L314.792 125.5H310.712L306.752 118.852L308.84 118.324L304.832 122.692L305.936 120.604V125.5H302.336ZM325.847 125.788C324.407 125.788 323.151 125.452 322.079 124.78C321.023 124.092 320.303 123.172 319.919 122.02L322.559 120.772C322.895 121.476 323.351 122.028 323.927 122.428C324.503 122.828 325.143 123.028 325.847 123.028C326.359 123.028 326.751 122.924 327.023 122.716C327.295 122.508 327.431 122.22 327.431 121.852C327.431 121.66 327.383 121.5 327.287 121.372C327.191 121.228 327.047 121.1 326.855 120.988C326.663 120.876 326.423 120.78 326.135 120.7L323.903 120.076C322.831 119.772 322.007 119.284 321.431 118.612C320.855 117.924 320.567 117.116 320.567 116.188C320.567 115.372 320.775 114.66 321.191 114.052C321.607 113.444 322.191 112.972 322.943 112.636C323.695 112.284 324.559 112.108 325.535 112.108C326.815 112.108 327.935 112.412 328.895 113.02C329.871 113.612 330.559 114.452 330.959 115.54L328.295 116.788C328.103 116.244 327.751 115.812 327.239 115.492C326.743 115.156 326.175 114.988 325.535 114.988C325.071 114.988 324.703 115.084 324.431 115.276C324.175 115.468 324.047 115.732 324.047 116.068C324.047 116.244 324.095 116.404 324.191 116.548C324.287 116.692 324.439 116.82 324.647 116.932C324.871 117.044 325.143 117.148 325.463 117.244L327.551 117.868C328.639 118.188 329.471 118.676 330.047 119.332C330.623 119.972 330.911 120.764 330.911 121.708C330.911 122.524 330.695 123.236 330.263 123.844C329.847 124.452 329.263 124.932 328.511 125.284C327.759 125.62 326.871 125.788 325.847 125.788ZM339.374 125.644C337.79 125.644 336.558 125.22 335.678 124.372C334.814 123.508 334.382 122.308 334.382 120.772V115.516H332.174V112.396H332.294C332.966 112.396 333.478 112.228 333.83 111.892C334.198 111.556 334.382 111.052 334.382 110.38V109.42H337.982V112.396H341.054V115.516H337.982V120.532C337.982 120.98 338.062 121.356 338.222 121.66C338.382 121.948 338.63 122.164 338.966 122.308C339.302 122.452 339.718 122.524 340.214 122.524C340.326 122.524 340.454 122.516 340.598 122.5C340.742 122.484 340.894 122.468 341.054 122.452V125.5C340.814 125.532 340.542 125.564 340.238 125.596C339.934 125.628 339.646 125.644 339.374 125.644ZM349.668 125.788C348.372 125.788 347.188 125.492 346.116 124.9C345.06 124.308 344.212 123.5 343.572 122.476C342.948 121.436 342.636 120.26 342.636 118.948C342.636 117.62 342.948 116.444 343.572 115.42C344.212 114.396 345.06 113.588 346.116 112.996C347.188 112.404 348.372 112.108 349.668 112.108C350.964 112.108 352.14 112.404 353.196 112.996C354.252 113.588 355.092 114.396 355.716 115.42C356.356 116.444 356.676 117.62 356.676 118.948C356.676 120.26 356.356 121.436 355.716 122.476C355.092 123.5 354.252 124.308 353.196 124.9C352.14 125.492 350.964 125.788 349.668 125.788ZM349.668 122.548C350.324 122.548 350.892 122.396 351.372 122.092C351.868 121.788 352.252 121.364 352.524 120.82C352.812 120.276 352.956 119.652 352.956 118.948C352.956 118.244 352.812 117.628 352.524 117.1C352.252 116.556 351.868 116.132 351.372 115.828C350.892 115.508 350.324 115.348 349.668 115.348C349.012 115.348 348.436 115.508 347.94 115.828C347.444 116.132 347.052 116.556 346.764 117.1C346.492 117.628 346.356 118.244 346.356 118.948C346.356 119.652 346.492 120.276 346.764 120.82C347.052 121.364 347.444 121.788 347.94 122.092C348.436 122.396 349.012 122.548 349.668 122.548ZM358.797 125.5V107.332H362.397V118.972L361.053 118.54L366.837 112.396H371.277L366.525 117.676L371.253 125.5H367.173L363.213 118.852L365.301 118.324L361.293 122.692L362.397 120.604V125.5H358.797ZM225.32 159.5V141.332H228.92V148.988L228.488 148.412C228.792 147.628 229.28 147.052 229.952 146.684C230.64 146.3 231.44 146.108 232.352 146.108C233.344 146.108 234.208 146.316 234.944 146.732C235.696 147.148 236.28 147.732 236.696 148.484C237.112 149.22 237.32 150.084 237.32 151.076V159.5H233.72V151.844C233.72 151.332 233.616 150.892 233.408 150.524C233.216 150.156 232.936 149.868 232.568 149.66C232.216 149.452 231.8 149.348 231.32 149.348C230.856 149.348 230.44 149.452 230.072 149.66C229.704 149.868 229.416 150.156 229.208 150.524C229.016 150.892 228.92 151.332 228.92 151.844V159.5H225.32ZM243.743 159.788C242.799 159.788 241.983 159.636 241.295 159.332C240.607 159.028 240.079 158.596 239.711 158.036C239.343 157.46 239.159 156.78 239.159 155.996C239.159 155.26 239.327 154.612 239.663 154.052C239.999 153.476 240.511 152.996 241.199 152.612C241.903 152.228 242.775 151.956 243.815 151.796L247.823 151.148V153.788L244.463 154.388C243.951 154.484 243.559 154.652 243.287 154.892C243.015 155.116 242.879 155.444 242.879 155.876C242.879 156.276 243.031 156.588 243.335 156.812C243.639 157.036 244.015 157.148 244.463 157.148C245.055 157.148 245.575 157.02 246.023 156.764C246.471 156.508 246.815 156.164 247.055 155.732C247.311 155.284 247.439 154.796 247.439 154.268V150.86C247.439 150.364 247.239 149.948 246.839 149.612C246.455 149.276 245.927 149.108 245.255 149.108C244.615 149.108 244.047 149.284 243.551 149.636C243.071 149.988 242.719 150.452 242.495 151.028L239.615 149.66C239.871 148.924 240.279 148.292 240.839 147.764C241.399 147.236 242.071 146.828 242.855 146.54C243.639 146.252 244.495 146.108 245.423 146.108C246.527 146.108 247.503 146.308 248.351 146.708C249.199 147.108 249.855 147.668 250.319 148.388C250.799 149.092 251.039 149.916 251.039 150.86V159.5H247.679V157.388L248.495 157.244C248.111 157.82 247.687 158.3 247.223 158.684C246.759 159.052 246.239 159.324 245.663 159.5C245.087 159.692 244.447 159.788 243.743 159.788ZM253.679 159.5V146.396H257.039V149.54L256.799 149.084C257.087 147.98 257.559 147.236 258.215 146.852C258.887 146.452 259.679 146.252 260.591 146.252H261.359V149.372H260.231C259.351 149.372 258.639 149.644 258.095 150.188C257.551 150.716 257.279 151.468 257.279 152.444V159.5H253.679ZM262.937 159.5V146.396H266.537V159.5H262.937ZM262.937 145.22V141.62H266.537V145.22H262.937ZM273.484 159.5V146.396H277.084V159.5H273.484ZM273.484 145.22V141.62H277.084V145.22H273.484ZM279.718 159.5V146.396H283.078V148.988L282.886 148.412C283.19 147.628 283.678 147.052 284.35 146.684C285.038 146.3 285.838 146.108 286.75 146.108C287.742 146.108 288.606 146.316 289.342 146.732C290.094 147.148 290.678 147.732 291.094 148.484C291.51 149.22 291.718 150.084 291.718 151.076V159.5H288.118V151.844C288.118 151.332 288.014 150.892 287.806 150.524C287.614 150.156 287.334 149.868 286.966 149.66C286.614 149.452 286.198 149.348 285.718 149.348C285.254 149.348 284.838 149.452 284.47 149.66C284.102 149.868 283.814 150.156 283.606 150.524C283.414 150.892 283.318 151.332 283.318 151.844V159.5H279.718ZM294.086 159.5V146.396H297.686V159.5H294.086ZM294.086 145.22V141.62H297.686V145.22H294.086ZM306.553 153.98L306.312 141.62H309.913L309.673 153.98H306.553ZM306.312 159.5V155.9H309.913V159.5H306.312Z" fill="white"/>
<path d="M150.302 79.8098H105.822V120.201H150.302V79.8098Z" fill="#92E3A9"/>
<mask id="mask1_469_249" style="mask-type:luminance" maskUnits="userSpaceOnUse" x="105" y="79" width="46" height="42">
<path d="M150.302 79.8098H105.822V120.201H150.302V79.8098Z" fill="white"/>
</mask>
<g mask="url(#mask1_469_249)">
<path opacity="0.37" d="M150.302 79.8098H105.822V120.201H150.302V79.8098Z" fill="black"/>
</g>
<path d="M150.302 79.8098H105.822V120.201H150.302V79.8098Z" stroke="#263238" stroke-linecap="round" stroke-linejoin="round"/>
<path d="M137.523 79.8098H105.822V120.201H137.523V79.8098Z" fill="#92E3A9" stroke="#263238" stroke-linecap="round" stroke-linejoin="round"/>
<path d="M124.883 79.8098H118.073V91.0848H124.883V79.8098Z" fill="white" stroke="#263238" stroke-linecap="round" stroke-linejoin="round"/>
<path d="M134.523 94.3765H126.627V98.4051H134.523V94.3765Z" fill="white"/>
<path d="M130.899 108.732L122.765 106.719L121.564 111.569L129.699 113.582L130.899 108.732Z" fill="white"/>
<path d="M123.549 160.313H79.0686V200.704H123.549V160.313Z" fill="#92E3A9"/>
<mask id="mask2_469_249" style="mask-type:luminance" maskUnits="userSpaceOnUse" x="79" y="160" width="45" height="41">
<path d="M123.549 160.313H79.0686V200.704H123.549V160.313Z" fill="white"/>
</mask>
<g mask="url(#mask2_469_249)">
<path opacity="0.37" d="M123.549 160.313H79.0686V200.704H123.549V160.313Z" fill="black"/>
</g>
<path d="M123.549 160.313H79.0686V200.704H123.549V160.313Z" stroke="#263238" stroke-linecap="round" stroke-linejoin="round"/>
<path d="M110.77 160.313H79.0686V200.704H110.77V160.313Z" fill="#92E3A9" stroke="#263238" stroke-linecap="round" stroke-linejoin="round"/>
<path d="M98.1305 160.313H91.3202V171.588H98.1305V160.313Z" fill="white" stroke="#263238" stroke-linecap="round" stroke-linejoin="round"/>
<path d="M90.0471 193.414H82.1511V197.443H90.0471V193.414Z" fill="white"/>
<path d="M106.63 174.837L98.4954 172.824L97.2951 177.674L105.43 179.688L106.63 174.837Z" fill="white"/>
<path d="M156.258 160.313H111.777V200.704H156.258V160.313Z" fill="#92E3A9"/>
<mask id="mask3_469_249" style="mask-type:luminance" maskUnits="userSpaceOnUse" x="111" y="160" width="46" height="41">
<path d="M156.258 160.313H111.777V200.704H156.258V160.313Z" fill="white"/>
</mask>
<g mask="url(#mask3_469_249)">
<path opacity="0.37" d="M156.258 160.313H111.777V200.704H156.258V160.313Z" fill="black"/>
</g>
<path d="M156.258 160.313H111.777V200.704H156.258V160.313Z" stroke="#263238" stroke-linecap="round" stroke-linejoin="round"/>
<path d="M143.479 160.313H111.777V200.704H143.479V160.313Z" fill="#92E3A9" stroke="#263238" stroke-linecap="round" stroke-linejoin="round"/>
<path d="M130.839 160.313H124.029V171.588H130.839V160.313Z" fill="white" stroke="#263238" stroke-linecap="round" stroke-linejoin="round"/>
<path d="M140.479 174.884H132.583V178.913H140.479V174.884Z" fill="white"/>
<path d="M122.9 172.099L114.765 170.086L113.565 174.936L121.699 176.949L122.9 172.099Z" fill="white"/>
<path d="M189.394 160.313H144.913V200.704H189.394V160.313Z" fill="#92E3A9"/>
<mask id="mask4_469_249" style="mask-type:luminance" maskUnits="userSpaceOnUse" x="144" y="160" width="46" height="41">
<path d="M189.394 160.313H144.913V200.704H189.394V160.313Z" fill="white"/>
</mask>
<g mask="url(#mask4_469_249)">
<path opacity="0.37" d="M189.394 160.313H144.913V200.704H189.394V160.313Z" fill="black"/>
</g>
<path d="M189.394 160.313H144.913V200.704H189.394V160.313Z" stroke="#263238" stroke-linecap="round" stroke-linejoin="round"/>
<path d="M176.615 160.313H144.913V200.704H176.615V160.313Z" fill="#92E3A9" stroke="#263238" stroke-linecap="round" stroke-linejoin="round"/>
<path d="M163.975 160.313H157.165V171.588H163.975V160.313Z" fill="white" stroke="#263238" stroke-linecap="round" stroke-linejoin="round"/>
<path d="M173.615 174.884H165.719V178.913H173.615V174.884Z" fill="white"/>
<path d="M156.033 172.102L147.899 170.089L146.698 174.939L154.833 176.952L156.033 172.102Z" fill="white"/>
<path d="M138.888 120.031H94.4071V160.422H138.888V120.031Z" fill="#92E3A9"/>
<mask id="mask5_469_249" style="mask-type:luminance" maskUnits="userSpaceOnUse" x="94" y="120" width="45" height="41">
<path d="M138.888 120.031H94.4071V160.422H138.888V120.031Z" fill="white"/>
</mask>
<g mask="url(#mask5_469_249)">
<path opacity="0.37" d="M138.888 120.031H94.4071V160.422H138.888V120.031Z" fill="black"/>
</g>
<path d="M138.888 120.031H94.4071V160.422H138.888V120.031Z" stroke="#263238" stroke-linecap="round" stroke-linejoin="round"/>
<path d="M126.109 120.031H94.4071V160.422H126.109V120.031Z" fill="#92E3A9" stroke="#263238" stroke-linecap="round" stroke-linejoin="round"/>
<path d="M113.465 120.031H106.654V131.306H113.465V120.031Z" fill="white" stroke="#263238" stroke-linecap="round" stroke-linejoin="round"/>
<path d="M123.109 134.602H115.213V138.631H123.109V134.602Z" fill="white"/>
<path d="M105.526 131.818L97.3912 129.805L96.1909 134.655L104.325 136.668L105.526 131.818Z" fill="white"/>
<path d="M174.204 120.031H129.723V160.422H174.204V120.031Z" fill="#92E3A9"/>
<mask id="mask6_469_249" style="mask-type:luminance" maskUnits="userSpaceOnUse" x="129" y="120" width="46" height="41">
<path d="M174.204 120.031H129.723V160.422H174.204V120.031Z" fill="white"/>
</mask>
<g mask="url(#mask6_469_249)">
<path opacity="0.37" d="M174.204 120.031H129.723V160.422H174.204V120.031Z" fill="black"/>
</g>
<path d="M174.204 120.031H129.723V160.422H174.204V120.031Z" stroke="#263238" stroke-linecap="round" stroke-linejoin="round"/>
<path d="M161.425 120.031H129.723V160.422H161.425V120.031Z" fill="#92E3A9" stroke="#263238" stroke-linecap="round" stroke-linejoin="round"/>
<path d="M148.781 120.031H141.97V131.306H148.781V120.031Z" fill="white" stroke="#263238" stroke-linecap="round" stroke-linejoin="round"/>
<path d="M158.425 134.602H150.529V138.631H158.425V134.602Z" fill="white"/>
<path d="M142.802 141.37L134.667 139.357L133.467 144.207L141.601 146.22L142.802 141.37Z" fill="white"/>
<path d="M50.6632 187.685C50.6632 187.685 48.832 191.404 47.524 193.505C46.216 195.607 43.7875 198.371 44.036 200.804C44.2845 203.237 46.8177 203.499 49.425 202.112C52.0322 200.726 54.3779 197.944 55.093 195.855C55.808 193.767 58.049 192.032 58.049 189.686C58.049 187.34 57.8746 187.07 57.007 186.817C56.1394 186.564 51.5308 186.207 50.6632 187.685Z" fill="white" stroke="#263238" stroke-linecap="round" stroke-linejoin="round"/>
<path d="M58.049 189.682C58.049 189.337 58.049 189.041 58.049 188.779C57.808 189.505 57.5166 190.213 57.177 190.898C56.2178 192.812 54.827 193.95 54.3082 196.287C53.7893 198.624 50.4844 201.327 47.6156 202.021C44.7467 202.714 44.1276 200.373 44.1276 200.373H44.0229C44.0123 200.518 44.0123 200.663 44.0229 200.809C44.2845 203.241 46.8046 203.503 49.4119 202.117C52.0192 200.73 54.3648 197.948 55.0799 195.86C55.7949 193.771 58.049 192.027 58.049 189.682Z" fill="#263238" stroke="#263238" stroke-linecap="round" stroke-linejoin="round"/>
<path d="M51.012 189.246C51.012 189.246 52.0584 190.724 55.5333 190.292" stroke="#263238" stroke-linecap="round" stroke-linejoin="round"/>
<path d="M50.9248 190.467C51.9575 191.279 53.2681 191.653 54.5741 191.509" stroke="#263238" stroke-linecap="round" stroke-linejoin="round"/>
<path d="M50.576 191.509C50.9597 191.924 51.4362 192.243 51.9666 192.439C52.497 192.635 53.0663 192.703 53.628 192.638" stroke="#263238" stroke-linecap="round" stroke-linejoin="round"/>
<path d="M50.2272 192.987C50.2272 192.987 50.8376 194.203 53.1833 193.941" stroke="#263238" stroke-linecap="round" stroke-linejoin="round"/>
<path d="M72.9079 190.968C74.2156 193.026 76.0132 194.728 78.1399 195.921C81.5276 197.748 85.8746 198.973 86.219 199.845C86.3645 200.161 86.3921 200.519 86.297 200.854C86.2019 201.189 85.9902 201.479 85.7002 201.672C85.2642 201.929 78.8332 202.108 75.4454 201.497C73.5335 201.089 71.579 200.913 69.6248 200.974C68.0596 200.974 64.6719 201.41 64.2359 199.496C63.7999 197.582 64.9291 190.632 64.9291 190.632C64.9291 190.632 70.039 192.115 72.9079 190.968Z" fill="white" stroke="#263238" stroke-miterlimit="10"/>
<path d="M85.6827 201.676C85.9073 201.528 86.0853 201.319 86.1964 201.073C86.3075 200.828 86.347 200.556 86.3106 200.29C84.9615 200.618 83.5903 200.849 82.2078 200.979C78.7198 201.327 73.5183 200.198 69.433 200.024C66.4333 199.897 64.794 199.204 64.1356 198.851C64.1474 199.069 64.1751 199.286 64.2184 199.5C64.6544 201.415 68.0422 200.979 69.6074 200.979C71.5616 200.917 73.516 201.093 75.428 201.502C78.8157 202.108 85.2467 201.933 85.6827 201.676Z" fill="#263238" stroke="#263238" stroke-miterlimit="10"/>
<path d="M74.2116 192.987C73.5417 193.522 73.0058 194.205 72.6463 194.983" stroke="#263238" stroke-miterlimit="10"/>
<path d="M75.2536 194.286C75.2536 194.286 74.1244 195.245 74.1244 195.851" stroke="#263238" stroke-miterlimit="10"/>
<path d="M76.3828 195.158C76.0904 195.65 75.8576 196.176 75.6896 196.723" stroke="#263238" stroke-miterlimit="10"/>
<path d="M78.1225 195.938C78.1225 195.938 77.4249 196.549 77.4249 197.155" stroke="#263238" stroke-miterlimit="10"/>
<path d="M48.3655 98.6799C48.3655 98.6799 45.6012 111.834 45.8192 119.028C46.0372 126.222 55.8472 144.098 55.8472 144.098C55.8472 144.098 50.6152 156.96 50.3972 162.628C50.1792 168.296 50.624 186.543 50.624 186.543C50.624 186.543 52.804 187.807 54.779 187.807C56.7541 187.807 59.1129 186.813 59.1129 186.813L64.1312 167.193L64.3492 190.955C65.8009 191.815 67.4579 192.267 69.1452 192.263C70.8617 192.253 72.5344 191.72 73.9412 190.737C73.9412 190.737 77.4292 165.667 77.8652 161.525C78.3012 157.383 81.1352 144.957 81.3532 144.085C81.5712 143.213 85.7132 129.479 85.7132 118.361C85.7132 107.243 82.5174 100.559 82.5174 100.559C82.5174 100.559 71.3252 98.087 63.0412 97.869C58.1353 97.7337 53.2266 98.005 48.3655 98.6799Z" fill="#263238" stroke="#263238" stroke-linecap="round" stroke-linejoin="round"/>
<path d="M65.6572 163.936C65.6572 163.936 71.3252 147.804 71.3252 143.88C71.3252 139.956 67.6192 115.54 67.6192 115.54" stroke="#878787" stroke-miterlimit="10"/>
<path d="M69.1452 122.952C69.1452 122.952 72.4152 119.246 73.5052 117.066" stroke="#878787" stroke-miterlimit="10"/>
<path d="M82.0814 65.2561C82.0814 65.2561 86.5852 67.8721 89.0574 71.7961C91.5295 75.7201 96.9054 92.2881 96.6132 96.4999C96.3211 100.712 95.0175 101.88 91.2374 101.152C87.4572 100.424 87.1695 96.2121 86.2975 92.7241C85.4255 89.2361 80.7734 67.144 80.7734 67.144L80.6295 65.1079L82.0814 65.2561Z" fill="white" stroke="#263238" stroke-linecap="round" stroke-linejoin="round"/>
<path d="M96.6132 96.4998C96.7615 94.3547 95.4404 89.0006 93.7792 83.7468L84.584 85.0199C85.3557 88.5951 86.0184 91.5992 86.2975 92.711C87.1695 96.199 87.4572 100.411 91.2374 101.139C95.0175 101.867 96.3255 100.716 96.6132 96.4998Z" fill="#CFCFCF" stroke="#263238" stroke-linecap="round" stroke-linejoin="round"/>
<path d="M51.9974 63.9481C51.9974 63.9481 48.5094 64.6719 47.6374 70.7759C46.7654 76.8799 48.8015 86.9079 48.8015 86.9079L48.3655 98.6799C48.3655 98.6799 62.8974 102.46 68.8575 102.46C74.8176 102.46 82.5174 100.572 82.5174 100.572C82.5174 100.572 79.3215 71.2119 78.7372 68.7441C78.153 66.2764 75.5414 63.7999 73.3614 62.2041C71.1814 60.6084 65.6572 60.7479 62.4614 61.6199C59.2655 62.4919 54.7572 64.2359 54.7572 64.2359L51.9974 63.9481Z" fill="white" stroke="#263238" stroke-linecap="round" stroke-linejoin="round"/>
<path d="M62.4614 59.876C62.4614 59.876 65.5134 72.2322 65.8055 80.6601C66.0976 89.088 64.4975 115.248 64.4975 115.248C64.4975 115.248 57.6654 115.54 52.7255 114.668C47.7856 113.796 44.2932 113.36 44.2932 113.36L48.6532 86.1842C48.6532 86.1842 54.6134 86.6202 55.9214 82.4041C57.2294 78.188 55.4854 69.7601 53.8852 67.1441C52.2851 64.5281 51.9974 63.9482 51.9974 63.9482L62.4614 59.876Z" fill="#92E3A9" stroke="#263238" stroke-linecap="round" stroke-linejoin="round"/>
<path d="M75.6852 71.36C75.6852 71.36 78.8855 83.568 78.5934 95.776C78.3012 107.984 78.1574 114.524 78.1574 114.524C78.1574 114.524 85.1334 114.088 89.0574 112.488C89.0574 112.488 86.8774 84.004 84.8412 75.5717C82.8051 67.1395 82.0814 65.256 82.0814 65.256L73.9412 61.9119L75.6852 71.36Z" fill="#92E3A9" stroke="#263238" stroke-linecap="round" stroke-linejoin="round"/>
<path d="M65.5918 57.5039C65.5918 57.5039 62.5398 58.0707 61.7376 59.6578C60.9354 61.2448 64.9117 74.2812 64.9117 74.2812L70.693 69.5201L77.8347 73.601C77.8347 73.601 76.4744 63.7387 73.527 60.3379C70.5797 56.9371 65.5918 57.5039 65.5918 57.5039Z" fill="white" stroke="#263238" stroke-linecap="round" stroke-linejoin="round"/>
<path d="M64.3449 49.2332C64.3449 49.2332 64.2315 60.6782 65.4785 63.6212C66.7254 66.5642 70.0129 70.8762 71.2598 70.196C72.5068 69.5159 72.8469 61.2406 73.0736 60.6738C73.3003 60.107 74.2072 55.4418 74.2072 55.4418C74.2072 55.4418 66.0453 53.192 64.3449 49.2332Z" fill="#CFCFCF" stroke="#263238" stroke-linecap="round" stroke-linejoin="round"/>
<path d="M64.3449 49.2332C64.3449 49.2332 64.3013 53.8286 64.5847 57.9532C65.8856 59.4937 67.7134 60.4946 69.712 60.761C70.8246 60.9294 71.9571 60.9147 73.0649 60.7174C73.063 60.7073 73.063 60.697 73.0649 60.6869C73.2916 60.1201 74.1985 55.4549 74.1985 55.4549C74.1985 55.4549 66.0453 53.192 64.3449 49.2332Z" fill="#263238" stroke="#263238" stroke-linecap="round" stroke-linejoin="round"/>
<path d="M77.0979 88.6127L76.2259 89.1447L71.1814 80.8999C71.112 80.7847 71.091 80.6467 71.1229 80.5161C71.1547 80.3855 71.2368 80.2727 71.3514 80.2023C71.408 80.1672 71.4711 80.1436 71.5368 80.133C71.6026 80.1223 71.6698 80.1248 71.7346 80.1402C71.7995 80.1555 71.8606 80.1836 71.9146 80.2227C71.9685 80.2618 72.0142 80.3112 72.049 80.368L77.0979 88.6127Z" fill="white" stroke="#263238" stroke-linecap="round" stroke-linejoin="round"/>
<path d="M51.9974 63.948C51.9974 63.948 48.6532 64.2358 46.6215 68.1598C44.5897 72.0838 41.3895 90.544 40.8052 95.9199C40.221 101.296 43.4212 100.86 43.8572 100.86C44.2932 100.86 67.4012 93.16 67.4012 93.16L75.2492 92.288C75.2492 92.288 74.3772 93.0118 75.1054 93.0118C75.8335 93.0118 77.2854 91.5599 77.8652 90.6879C78.4451 89.8159 76.1212 85.0199 75.2492 84.44C74.3772 83.8601 66.5292 89.672 66.5292 89.672L51.2692 90.6879L55.1932 77.3158" fill="white"/>
<path d="M51.9974 63.948C51.9974 63.948 48.6532 64.2358 46.6215 68.1598C44.5897 72.0838 41.3895 90.544 40.8052 95.9199C40.221 101.296 43.4212 100.86 43.8572 100.86C44.2932 100.86 67.4012 93.16 67.4012 93.16L75.2492 92.288C75.2492 92.288 74.3772 93.0118 75.1054 93.0118C75.8335 93.0118 77.2854 91.5599 77.8652 90.6879C78.4451 89.8159 76.1212 85.0199 75.2492 84.44C74.3772 83.8601 66.5292 89.672 66.5292 89.672L51.2692 90.6879L55.1932 77.3158" stroke="#263238" stroke-linecap="round" stroke-linejoin="round"/>
<path d="M75.2492 84.4402C74.3772 83.8559 66.5292 89.6722 66.5292 89.6722L51.2692 90.688L52.2372 87.3919L42.4751 85.1901C41.6685 89.6678 41.0363 93.8054 40.8052 95.92C40.2254 101.296 43.4212 100.86 43.8572 100.86C44.2932 100.86 67.4012 93.1602 67.4012 93.1602L75.2492 92.2882C75.2492 92.2882 74.3772 93.0119 75.1054 93.0119C75.8335 93.0119 77.2854 91.56 77.8652 90.688C78.4451 89.816 76.1212 85.02 75.2492 84.4402Z" fill="#CFCFCF" stroke="#263238" stroke-linecap="round" stroke-linejoin="round"/>
<path d="M75.2492 84.4402C74.3772 83.8559 66.5292 89.6722 66.5292 89.6722L64.3056 89.8204C64.2971 91.228 64.6435 92.6151 65.3128 93.8534L67.4012 93.1602L75.2492 92.2882C75.2492 92.2882 74.3772 93.0119 75.1054 93.0119C75.8335 93.0119 77.2854 91.56 77.8652 90.688C78.4451 89.816 76.1212 85.02 75.2492 84.4402Z" fill="#666666" stroke="#263238" stroke-linecap="round" stroke-linejoin="round"/>
<path d="M82.9534 77.6079L68.1294 98.392L87.6055 97.6639L101.701 78.4799L82.9534 77.6079Z" fill="#263238" stroke="#263238" stroke-linecap="round" stroke-linejoin="round"/>
<path d="M89.4977 76.9976L88.3598 78.8898L96.8836 79.0816L98.0215 77.185L89.4977 76.9976Z" fill="#263238" stroke="#263238" stroke-linecap="round" stroke-linejoin="round"/>
<path d="M95.2573 89.4019C94.5879 89.6465 93.8908 89.8076 93.1819 89.8815C92.3099 89.9207 91.5077 90.3611 91.5077 90.8014C91.5077 91.2418 93.0642 91.3203 94.1804 91.3203C95.2965 91.3203 96.1729 91.0805 96.3604 90.3611C96.5478 89.6417 96.295 89.0051 95.2573 89.4019Z" fill="#666666" stroke="#263238" stroke-linecap="round" stroke-linejoin="round"/>
<path d="M96.2601 87.4528C95.4162 87.7621 94.5377 87.9671 93.6441 88.0632C92.5323 88.1112 91.5208 88.6693 91.5208 89.223C91.5208 89.7767 93.4915 89.8814 94.9085 89.8814C96.3255 89.8814 97.4373 89.5805 97.6902 88.6693C97.943 87.758 97.5768 86.9471 96.2601 87.4528Z" fill="#666666" stroke="#263238" stroke-linecap="round" stroke-linejoin="round"/>
<path d="M97.0667 85.7873C96.2228 86.0966 95.3443 86.3015 94.4507 86.3977C93.3345 86.4457 92.323 87.0038 92.323 87.5575C92.323 88.1112 94.2981 88.2158 95.7151 88.2158C97.1321 88.2158 98.2439 87.915 98.4968 87.0038C98.7496 86.0925 98.3834 85.2816 97.0667 85.7873Z" fill="#666666" stroke="#263238" stroke-linecap="round" stroke-linejoin="round"/>
<path d="M97.6117 83.9038C96.7674 84.2107 95.889 84.4142 94.9957 84.5098C93.8839 84.5578 92.8724 85.1159 92.8724 85.6739C92.8724 86.232 94.8431 86.3323 96.2601 86.3323C97.6771 86.3323 98.7889 86.0271 99.0418 85.1159C99.2946 84.2046 98.9284 83.398 97.6117 83.9038Z" fill="#666666" stroke="#263238" stroke-linecap="round" stroke-linejoin="round"/>
<path d="M50.1749 182.387C50.1749 182.387 50.0833 186.904 50.2621 187.619C50.4408 188.334 53.6062 189.241 55.59 189.241C57.5738 189.241 58.8426 188.805 59.2044 188.252C59.5663 187.698 60.1942 184.005 60.1942 184.005C60.1942 184.005 53.1528 185.461 50.1749 182.387Z" fill="#666666" stroke="#263238" stroke-linecap="round" stroke-linejoin="round"/>
<path d="M60.168 45.6057C58.7546 45.1078 57.2347 44.9924 55.7623 45.2711C54.29 45.5498 52.9174 46.2127 51.7837 47.1927C47.8161 50.5935 51.3477 56.7149 55.5246 57.3951C59.7015 58.0753 62.4352 56.1481 63.1154 53.0874C63.7955 50.0267 62.6706 45.4923 60.168 45.6057Z" fill="#263238" stroke="#263238" stroke-linecap="round" stroke-linejoin="round"/>
<path d="M80.224 44.5852C80.224 44.5852 79.6572 50.2532 78.5236 54.2208C77.39 58.1884 74.4426 59.6621 70.2396 59.0953C66.0366 58.5285 63.6647 55.1277 62.3044 51.1601C60.9441 47.1925 60.8307 41.7512 60.8307 41.7512L80.224 44.5852Z" fill="#CFCFCF" stroke="#263238" stroke-linecap="round" stroke-linejoin="round"/>
<path d="M61.4237 44.4721C61.4237 44.4721 62.784 45.719 65.836 43.5652C68.888 41.4114 67.423 40.3911 67.423 40.3911L60.168 40.8271L61.4237 44.4721Z" fill="#263238" stroke="#263238" stroke-linecap="round" stroke-linejoin="round"/>
<path d="M75.707 45.9456C75.707 45.9456 75.1402 47.646 75.4803 48.2128C75.8204 48.7796 76.7273 49.5731 75.707 50.48C75.5222 50.6604 75.2975 50.7948 75.051 50.8721C74.8045 50.9495 74.5433 50.9677 74.2885 50.9252C74.0337 50.8828 73.7925 50.7808 73.5844 50.6277C73.3764 50.4746 73.2074 50.2746 73.091 50.044" stroke="#263238" stroke-linecap="round" stroke-linejoin="round"/>
<path d="M69.385 51.012C69.385 51.012 71.129 53.2748 74.4339 52.2328" stroke="#263238" stroke-linecap="round" stroke-linejoin="round"/>
<path d="M71.8528 46.6258C71.8528 47.2536 71.5999 47.7594 71.286 47.7594C70.9721 47.7594 70.7192 47.2536 70.7192 46.6258C70.7192 45.998 70.9721 45.4922 71.286 45.4922C71.5999 45.4922 71.8528 45.998 71.8528 46.6258Z" fill="#263238"/>
<path d="M78.0876 47.524C78.0876 48.1518 77.8347 48.6576 77.5208 48.6576C77.2069 48.6576 76.954 48.1518 76.954 47.524C76.954 46.8961 77.2069 46.3904 77.5208 46.3904C77.8347 46.3904 78.0876 46.9049 78.0876 47.524Z" fill="#263238"/>
<path d="M69.4722 44.1318C69.4722 44.1318 71.0593 42.318 73.0998 44.1318" stroke="#263238" stroke-linecap="round" stroke-linejoin="round"/>
<path d="M76.736 45.0387C77.0853 44.7811 77.5128 44.6517 77.9464 44.6723C78.38 44.693 78.7933 44.8624 79.1166 45.1521" stroke="#263238" stroke-linecap="round" stroke-linejoin="round"/>
<path d="M59.732 42.2048L80.817 44.472C80.817 44.472 80.5902 33.8161 80.4769 32.0067C80.3635 30.1973 71.9749 27.6991 68.7049 27.9258C65.4349 28.1525 61.3365 30.0796 60.6563 30.9778C59.9762 31.8759 59.732 42.2048 59.732 42.2048Z" fill="#92E3A9" stroke="#263238" stroke-linecap="round" stroke-linejoin="round"/>
<path d="M68.7921 43.3383L87.4921 45.8322C87.4921 45.8322 82.5086 41.5245 78.541 41.1845C74.5734 40.8444 68.7921 43.3383 68.7921 43.3383Z" fill="#92E3A9" stroke="#263238" stroke-linecap="round" stroke-linejoin="round"/>
<path d="M62.2172 45.2654C62.2172 45.2654 61.7812 41.7512 59.8366 41.7512C57.8921 41.7512 58.8164 44.5852 59.0431 46.399C59.2698 48.2127 61.4237 48.6662 62.2172 47.986" fill="#CFCFCF"/>
<path d="M62.2172 45.2654C62.2172 45.2654 61.7812 41.7512 59.8366 41.7512C57.8921 41.7512 58.8164 44.5852 59.0431 46.399C59.2698 48.2127 61.4237 48.6662 62.2172 47.986" stroke="#263238" stroke-linecap="round" stroke-linejoin="round"/>
<path d="M64.1705 187.083L64.4408 191.33C64.4408 191.33 65.6398 192.228 69.1452 192.276C72.6507 192.324 73.9412 190.75 73.9412 190.75L74.6432 186.172C74.6432 186.172 68.1424 189.25 64.1705 187.083Z" fill="#666666" stroke="#263238" stroke-linecap="round" stroke-linejoin="round"/>
<defs>
<linearGradient id="paint0_linear_469_249" x1="-34.9112" y1="72.5" x2="388.166" y2="72.5" gradientUnits="userSpaceOnUse">
<stop offset="0.446" stop-color="#002F6C"/>
<stop offset="1" stop-color="#E3F2FD"/>
</linearGradient>
<linearGradient id="paint1_linear_469_249" x1="370.452" y1="147.704" x2="26.6177" y2="147.704" gradientUnits="userSpaceOnUse">
<stop offset="0.446" stop-color="#048C09"/>
<stop offset="1" stop-color="#E3F2FD"/>
</linearGradient>
</defs>
</svg>
