<svg width="54" height="54" viewBox="0 0 54 54" fill="none" xmlns="http://www.w3.org/2000/svg">
<rect x="0.5" y="0.5" width="53" height="53" rx="26.5" stroke="#CFCFCF"/>
<g clip-path="url(#clip0_134_37)">
<path d="M19 20.5998V17.3998C19 16.9755 19.1686 16.5685 19.4686 16.2684C19.7687 15.9684 20.1756 15.7998 20.6 15.7998H36.6C37.0243 15.7998 37.4313 15.9684 37.7314 16.2684C38.0314 16.5685 38.2 16.9755 38.2 17.3998V36.5998C38.2 37.0242 38.0314 37.4311 37.7314 37.7312C37.4313 38.0312 37.0243 38.1998 36.6 38.1998H20.6C20.1756 38.1998 19.7687 38.0312 19.4686 37.7312C19.1686 37.4311 19 37.0242 19 36.5998V33.3998M19 23.7998L25.4 30.1998M19 30.1998L25.4 23.7998M17.4 20.5998H27C27.4243 20.5998 27.8313 20.7684 28.1314 21.0684C28.4314 21.3685 28.6 21.7755 28.6 22.1998V31.7998C28.6 32.2242 28.4314 32.6311 28.1314 32.9312C27.8313 33.2312 27.4243 33.3998 27 33.3998H17.4C16.9756 33.3998 16.5687 33.2312 16.2686 32.9312C15.9686 32.6311 15.8 32.2242 15.8 31.7998V22.1998C15.8 21.7755 15.9686 21.3685 16.2686 21.0684C16.5687 20.7684 16.9756 20.5998 17.4 20.5998Z" stroke="#455A64" stroke-width="1.6"/>
</g>
<defs>
<clipPath id="clip0_134_37">
<rect width="24" height="24" fill="white" transform="translate(15 15)"/>
</clipPath>
</defs>
</svg>
