<svg width="54" height="54" viewBox="0 0 54 54" fill="none" xmlns="http://www.w3.org/2000/svg">
<rect x="0.5" y="0.5" width="53" height="53" rx="26.5" stroke="#CFCFCF"/>
<path d="M35.5714 28.4286H28.4286V35.5714C28.4286 35.9503 28.2781 36.3137 28.0102 36.5816C27.7422 36.8495 27.3789 37 27 37C26.6211 37 26.2578 36.8495 25.9898 36.5816C25.7219 36.3137 25.5714 35.9503 25.5714 35.5714V28.4286H18.4286C18.0497 28.4286 17.6863 28.2781 17.4184 28.0102C17.1505 27.7422 17 27.3789 17 27C17 26.6211 17.1505 26.2578 17.4184 25.9898C17.6863 25.7219 18.0497 25.5714 18.4286 25.5714H25.5714V18.4286C25.5714 18.0497 25.7219 17.6863 25.9898 17.4184C26.2578 17.1505 26.6211 17 27 17C27.3789 17 27.7422 17.1505 28.0102 17.4184C28.2781 17.6863 28.4286 18.0497 28.4286 18.4286V25.5714H35.5714C35.9503 25.5714 36.3137 25.7219 36.5816 25.9898C36.8495 26.2578 37 26.6211 37 27C37 27.3789 36.8495 27.7422 36.5816 28.0102C36.3137 28.2781 35.9503 28.4286 35.5714 28.4286Z" fill="#212121"/>
<path d="M35.5714 28.4286H28.4286V35.5714C28.4286 35.9503 28.2781 36.3137 28.0102 36.5816C27.7422 36.8495 27.3789 37 27 37C26.6211 37 26.2578 36.8495 25.9898 36.5816C25.7219 36.3137 25.5714 35.9503 25.5714 35.5714V28.4286H18.4286C18.0497 28.4286 17.6863 28.2781 17.4184 28.0102C17.1505 27.7422 17 27.3789 17 27C17 26.6211 17.1505 26.2578 17.4184 25.9898C17.6863 25.7219 18.0497 25.5714 18.4286 25.5714H25.5714V18.4286C25.5714 18.0497 25.7219 17.6863 25.9898 17.4184C26.2578 17.1505 26.6211 17 27 17C27.3789 17 27.7422 17.1505 28.0102 17.4184C28.2781 17.6863 28.4286 18.0497 28.4286 18.4286V25.5714H35.5714C35.9503 25.5714 36.3137 25.7219 36.5816 25.9898C36.8495 26.2578 37 26.6211 37 27C37 27.3789 36.8495 27.7422 36.5816 28.0102C36.3137 28.2781 35.9503 28.4286 35.5714 28.4286Z" fill="black" fill-opacity="0.2"/>
</svg>
