<svg width="47" height="47" viewBox="0 0 47 47" fill="none" xmlns="http://www.w3.org/2000/svg">
<rect width="47" height="47" rx="23.5" fill="#FFBF00"/>
<path d="M23.5 11.25C21.0772 11.25 18.7088 11.9685 16.6943 13.3145C14.6798 14.6605 13.1097 16.5737 12.1825 18.8121C11.2553 21.0505 11.0127 23.5136 11.4854 25.8899C11.9581 28.2661 13.1248 30.4489 14.8379 32.1621C16.5511 33.8752 18.7339 35.0419 21.1101 35.5146C23.4864 35.9873 25.9495 35.7447 28.1879 34.8175C30.4263 33.8903 32.3395 32.3202 33.6855 30.3057C35.0316 28.2912 35.75 25.9228 35.75 23.5C35.75 20.2511 34.4594 17.1353 32.1621 14.8379C29.8647 12.5406 26.7489 11.25 23.5 11.25ZM23.5 34C21.4233 34 19.3932 33.3842 17.6665 32.2304C15.9398 31.0767 14.594 29.4368 13.7993 27.5182C13.0046 25.5996 12.7966 23.4884 13.2018 21.4516C13.6069 19.4148 14.6069 17.5438 16.0754 16.0754C17.5438 14.6069 19.4148 13.6069 21.4516 13.2018C23.4884 12.7966 25.5996 13.0045 27.5182 13.7993C29.4368 14.594 31.0767 15.9398 32.2304 17.6665C33.3842 19.3932 34 21.4233 34 23.5C34 26.2848 32.8938 28.9555 30.9246 30.9246C28.9555 32.8938 26.2848 34 23.5 34Z" fill="white"/>
<path d="M22.625 16.5H24.375V26.125H22.625V16.5ZM23.5 28.75C23.2404 28.75 22.9867 28.827 22.7708 28.9712C22.555 29.1154 22.3867 29.3204 22.2874 29.5602C22.1881 29.8001 22.1621 30.064 22.2127 30.3186C22.2634 30.5732 22.3884 30.807 22.5719 30.9906C22.7555 31.1741 22.9893 31.2991 23.2439 31.3498C23.4985 31.4004 23.7624 31.3744 24.0023 31.2751C24.2421 31.1758 24.4471 31.0075 24.5913 30.7917C24.7355 30.5758 24.8125 30.3221 24.8125 30.0625C24.8125 29.7144 24.6742 29.3806 24.4281 29.1344C24.1819 28.8883 23.8481 28.75 23.5 28.75Z" fill="white"/>
</svg>
