<svg width="28" height="28" viewBox="0 0 28 28" fill="none" xmlns="http://www.w3.org/2000/svg">
<path fill-rule="evenodd" clip-rule="evenodd" d="M4.86733 3.70083C3.5 5.067 3.5 7.26733 3.5 11.6668V16.3335C3.5 20.733 3.5 22.9333 4.86733 24.2995C6.23467 25.6657 8.43383 25.6668 12.8333 25.6668H15.1667C19.5662 25.6668 21.7665 25.6668 23.1327 24.2995C24.4988 22.9322 24.5 20.733 24.5 16.3335V11.6668C24.5 7.26733 24.5 5.067 23.1327 3.70083C21.7653 2.33466 19.5662 2.3335 15.1667 2.3335H12.8333C8.43383 2.3335 6.2335 2.3335 4.86733 3.70083ZM9.33333 10.7918C9.10127 10.7918 8.87871 10.884 8.71461 11.0481C8.55052 11.2122 8.45833 11.4348 8.45833 11.6668C8.45833 11.8989 8.55052 12.1215 8.71461 12.2855C8.87871 12.4496 9.10127 12.5418 9.33333 12.5418H18.6667C18.8987 12.5418 19.1213 12.4496 19.2854 12.2855C19.4495 12.1215 19.5417 11.8989 19.5417 11.6668C19.5417 11.4348 19.4495 11.2122 19.2854 11.0481C19.1213 10.884 18.8987 10.7918 18.6667 10.7918H9.33333ZM9.33333 15.4585C9.10127 15.4585 8.87871 15.5507 8.71461 15.7148C8.55052 15.8789 8.45833 16.1014 8.45833 16.3335C8.45833 16.5656 8.55052 16.7881 8.71461 16.9522C8.87871 17.1163 9.10127 17.2085 9.33333 17.2085H15.1667C15.3987 17.2085 15.6213 17.1163 15.7854 16.9522C15.9495 16.7881 16.0417 16.5656 16.0417 16.3335C16.0417 16.1014 15.9495 15.8789 15.7854 15.7148C15.6213 15.5507 15.3987 15.4585 15.1667 15.4585H9.33333Z" fill="#4CAF50"/>
<path fill-rule="evenodd" clip-rule="evenodd" d="M4.86733 3.70083C3.5 5.067 3.5 7.26733 3.5 11.6668V16.3335C3.5 20.733 3.5 22.9333 4.86733 24.2995C6.23467 25.6657 8.43383 25.6668 12.8333 25.6668H15.1667C19.5662 25.6668 21.7665 25.6668 23.1327 24.2995C24.4988 22.9322 24.5 20.733 24.5 16.3335V11.6668C24.5 7.26733 24.5 5.067 23.1327 3.70083C21.7653 2.33466 19.5662 2.3335 15.1667 2.3335H12.8333C8.43383 2.3335 6.2335 2.3335 4.86733 3.70083ZM9.33333 10.7918C9.10127 10.7918 8.87871 10.884 8.71461 11.0481C8.55052 11.2122 8.45833 11.4348 8.45833 11.6668C8.45833 11.8989 8.55052 12.1215 8.71461 12.2855C8.87871 12.4496 9.10127 12.5418 9.33333 12.5418H18.6667C18.8987 12.5418 19.1213 12.4496 19.2854 12.2855C19.4495 12.1215 19.5417 11.8989 19.5417 11.6668C19.5417 11.4348 19.4495 11.2122 19.2854 11.0481C19.1213 10.884 18.8987 10.7918 18.6667 10.7918H9.33333ZM9.33333 15.4585C9.10127 15.4585 8.87871 15.5507 8.71461 15.7148C8.55052 15.8789 8.45833 16.1014 8.45833 16.3335C8.45833 16.5656 8.55052 16.7881 8.71461 16.9522C8.87871 17.1163 9.10127 17.2085 9.33333 17.2085H15.1667C15.3987 17.2085 15.6213 17.1163 15.7854 16.9522C15.9495 16.7881 16.0417 16.5656 16.0417 16.3335C16.0417 16.1014 15.9495 15.8789 15.7854 15.7148C15.6213 15.5507 15.3987 15.4585 15.1667 15.4585H9.33333Z" fill="black" fill-opacity="0.2"/>
</svg>
