<svg width="21" height="20" viewBox="0 0 21 20" fill="none" xmlns="http://www.w3.org/2000/svg">
<path d="M20 9.787H7.645M3.284 9.787H1.5M3.284 9.787C3.284 9.20883 3.51368 8.65434 3.92251 8.24551C4.33134 7.83668 4.88583 7.607 5.464 7.607C6.04217 7.607 6.59666 7.83668 7.00549 8.24551C7.41432 8.65434 7.644 9.20883 7.644 9.787C7.644 10.3652 7.41432 10.9197 7.00549 11.3285C6.59666 11.7373 6.04217 11.967 5.464 11.967C4.88583 11.967 4.33134 11.7373 3.92251 11.3285C3.51368 10.9197 3.284 10.3652 3.284 9.787ZM20 16.394H14.252M14.252 16.394C14.252 16.9723 14.0218 17.5274 13.6128 17.9363C13.2039 18.3453 12.6493 18.575 12.071 18.575C11.4928 18.575 10.9383 18.3443 10.5295 17.9355C10.1207 17.5267 9.891 16.9722 9.891 16.394M14.252 16.394C14.252 15.8157 14.0218 15.2616 13.6128 14.8527C13.2039 14.4437 12.6493 14.214 12.071 14.214C11.4928 14.214 10.9383 14.4437 10.5295 14.8525C10.1207 15.2613 9.891 15.8158 9.891 16.394M9.891 16.394H1.5M20 3.18H16.895M12.534 3.18H1.5M12.534 3.18C12.534 2.60183 12.7637 2.04734 13.1725 1.63851C13.5813 1.22968 14.1358 1 14.714 1C15.0003 1 15.2838 1.05639 15.5483 1.16594C15.8127 1.2755 16.0531 1.43608 16.2555 1.63851C16.4579 1.84094 16.6185 2.08126 16.7281 2.34575C16.8376 2.61024 16.894 2.89372 16.894 3.18C16.894 3.46628 16.8376 3.74976 16.7281 4.01425C16.6185 4.27874 16.4579 4.51906 16.2555 4.72149C16.0531 4.92392 15.8127 5.0845 15.5483 5.19406C15.2838 5.30361 15.0003 5.36 14.714 5.36C14.1358 5.36 13.5813 5.13032 13.1725 4.72149C12.7637 4.31266 12.534 3.75817 12.534 3.18Z" stroke="#757575" stroke-width="1.5" stroke-miterlimit="10" stroke-linecap="round"/>
<path d="M20 9.787H7.645M3.284 9.787H1.5M3.284 9.787C3.284 9.20883 3.51368 8.65434 3.92251 8.24551C4.33134 7.83668 4.88583 7.607 5.464 7.607C6.04217 7.607 6.59666 7.83668 7.00549 8.24551C7.41432 8.65434 7.644 9.20883 7.644 9.787C7.644 10.3652 7.41432 10.9197 7.00549 11.3285C6.59666 11.7373 6.04217 11.967 5.464 11.967C4.88583 11.967 4.33134 11.7373 3.92251 11.3285C3.51368 10.9197 3.284 10.3652 3.284 9.787ZM20 16.394H14.252M14.252 16.394C14.252 16.9723 14.0218 17.5274 13.6128 17.9363C13.2039 18.3453 12.6493 18.575 12.071 18.575C11.4928 18.575 10.9383 18.3443 10.5295 17.9355C10.1207 17.5267 9.891 16.9722 9.891 16.394M14.252 16.394C14.252 15.8157 14.0218 15.2616 13.6128 14.8527C13.2039 14.4437 12.6493 14.214 12.071 14.214C11.4928 14.214 10.9383 14.4437 10.5295 14.8525C10.1207 15.2613 9.891 15.8158 9.891 16.394M9.891 16.394H1.5M20 3.18H16.895M12.534 3.18H1.5M12.534 3.18C12.534 2.60183 12.7637 2.04734 13.1725 1.63851C13.5813 1.22968 14.1358 1 14.714 1C15.0003 1 15.2838 1.05639 15.5483 1.16594C15.8127 1.2755 16.0531 1.43608 16.2555 1.63851C16.4579 1.84094 16.6185 2.08126 16.7281 2.34575C16.8376 2.61024 16.894 2.89372 16.894 3.18C16.894 3.46628 16.8376 3.74976 16.7281 4.01425C16.6185 4.27874 16.4579 4.51906 16.2555 4.72149C16.0531 4.92392 15.8127 5.0845 15.5483 5.19406C15.2838 5.30361 15.0003 5.36 14.714 5.36C14.1358 5.36 13.5813 5.13032 13.1725 4.72149C12.7637 4.31266 12.534 3.75817 12.534 3.18Z" stroke="black" stroke-opacity="0.2" stroke-width="1.5" stroke-miterlimit="10" stroke-linecap="round"/>
</svg>
