<svg width="47" height="47" viewBox="0 0 47 47" fill="none" xmlns="http://www.w3.org/2000/svg">
<rect width="47" height="47" rx="23.5" fill="#4CAF50"/>
<path fill-rule="evenodd" clip-rule="evenodd" d="M23.5 35.1666C17.0565 35.1666 11.8333 29.9434 11.8333 23.4999C11.8333 17.0564 17.0565 11.8333 23.5 11.8333C29.9435 11.8333 35.1666 17.0564 35.1666 23.4999C35.1666 29.9434 29.9435 35.1666 23.5 35.1666ZM23.5 33.7666C26.2229 33.7666 28.8342 32.6849 30.7596 30.7596C32.685 28.8342 33.7666 26.2228 33.7666 23.4999C33.7666 20.777 32.685 18.1657 30.7596 16.2403C28.8342 14.3149 26.2229 13.2333 23.5 13.2333C20.7771 13.2333 18.1657 14.3149 16.2404 16.2403C14.315 18.1657 13.2333 20.777 13.2333 23.4999C13.2333 26.2228 14.315 28.8342 16.2404 30.7596C18.1657 32.6849 20.7771 33.7666 23.5 33.7666ZM22.1326 26.4843L28.9098 19.7083L29.8991 20.6988L22.9575 27.6404C22.7387 27.8591 22.442 27.982 22.1326 27.982C21.8233 27.982 21.5266 27.8591 21.3078 27.6404L17.6666 23.9969L18.6571 23.0064L22.1338 26.4831L22.1326 26.4843Z" fill="white"/>
</svg>
