<svg width="46" height="46" viewBox="0 0 46 46" fill="none" xmlns="http://www.w3.org/2000/svg">
<rect x="0.5" y="0.5" width="45" height="45" rx="7.5" stroke="#C7C7C7"/>
<path d="M14.4444 31.5556H16.1861L28.1333 19.6083L26.3917 17.8667L14.4444 29.8139V31.5556ZM12 34V28.8056L28.1333 12.7028C28.3778 12.4787 28.6479 12.3056 28.9437 12.1833C29.2394 12.0611 29.5499 12 29.875 12C30.2001 12 30.5158 12.0611 30.8222 12.1833C31.1286 12.3056 31.3934 12.4889 31.6167 12.7333L33.2972 14.4444C33.5417 14.6685 33.7201 14.9333 33.8325 15.2389C33.945 15.5444 34.0008 15.85 34 16.1556C34 16.4815 33.9442 16.7923 33.8325 17.0881C33.7209 17.3839 33.5425 17.6536 33.2972 17.8972L17.1944 34H12ZM27.2472 18.7528L26.3917 17.8667L28.1333 19.6083L27.2472 18.7528Z" fill="#A6A6A6"/>
</svg>
