<svg width="54" height="54" viewBox="0 0 54 54" fill="none" xmlns="http://www.w3.org/2000/svg">
<rect x="0.5" y="0.5" width="53" height="53" rx="26.5" stroke="#CFCFCF"/>
<path d="M35.5714 28.5H18.4286C18.0497 28.5 17.6863 28.342 17.4184 28.0607C17.1505 27.7794 17 27.3978 17 27C17 26.6022 17.1505 26.2206 17.4184 25.9393C17.6863 25.658 18.0497 25.5 18.4286 25.5H35.5714C35.9503 25.5 36.3137 25.658 36.5816 25.9393C36.8495 26.2206 37 26.6022 37 27C37 27.3978 36.8495 27.7794 36.5816 28.0607C36.3137 28.342 35.9503 28.5 35.5714 28.5Z" fill="#212121"/>
<path d="M35.5714 28.5H18.4286C18.0497 28.5 17.6863 28.342 17.4184 28.0607C17.1505 27.7794 17 27.3978 17 27C17 26.6022 17.1505 26.2206 17.4184 25.9393C17.6863 25.658 18.0497 25.5 18.4286 25.5H35.5714C35.9503 25.5 36.3137 25.658 36.5816 25.9393C36.8495 26.2206 37 26.6022 37 27C37 27.3978 36.8495 27.7794 36.5816 28.0607C36.3137 28.342 35.9503 28.5 35.5714 28.5Z" fill="black" fill-opacity="0.2"/>
</svg>
