<svg width="47" height="47" viewBox="0 0 47 47" fill="none" xmlns="http://www.w3.org/2000/svg">
<rect width="47" height="47" rx="23.5" fill="#F44336"/>
<g clip-path="url(#clip0_96_1359)">
<path d="M33.3933 13.5972C32.0943 12.2957 30.551 11.2636 28.852 10.56C27.153 9.8565 25.3319 9.49544 23.493 9.49757C15.7603 9.49757 9.49182 15.7661 9.49182 23.4987C9.49182 27.3651 11.0598 30.8662 13.5938 33.4002C14.8929 34.7018 16.4362 35.7339 18.1351 36.4374C19.8341 37.141 21.6553 37.502 23.4942 37.4999C31.2268 37.4999 37.4953 31.2314 37.4953 23.4987C37.4953 19.6324 35.9273 16.1312 33.3933 13.5972ZM31.5943 31.5954C30.5313 32.6601 29.2686 33.5046 27.8786 34.0804C26.4886 34.6561 24.9987 34.9519 23.4942 34.9507C17.1673 34.9507 12.0387 29.8221 12.0387 23.4952C12.0375 21.9907 12.3332 20.5007 12.909 19.1107C13.4848 17.7207 14.3293 16.4581 15.394 15.3951C16.4568 14.3305 17.7193 13.4861 19.1091 12.9103C20.4989 12.3346 21.9887 12.0387 23.493 12.0397C29.8187 12.0397 34.9473 17.1684 34.9473 23.4941C34.9484 24.9984 34.6525 26.4881 34.0767 27.8779C33.501 29.2677 32.6566 30.5302 31.592 31.5931L31.5943 31.5954Z" fill="white"/>
<path d="M25.2932 23.5001L29.7907 19.0026C30.0125 18.7608 30.1324 18.4426 30.1253 18.1145C30.1182 17.7864 29.9846 17.4737 29.7525 17.2418C29.5204 17.0098 29.2076 16.8764 28.8795 16.8695C28.5514 16.8626 28.2334 16.9827 27.9917 17.2047L27.9929 17.2036L23.4954 21.7011L18.9979 17.2036C18.756 16.9817 18.4379 16.8618 18.1098 16.869C17.7817 16.8761 17.469 17.0096 17.2371 17.2417C17.0051 17.4739 16.8717 17.7866 16.8648 18.1147C16.8579 18.4428 16.978 18.7609 17.2 19.0026L17.1989 19.0014L21.6964 23.4989L17.1989 27.9964C17.0723 28.1125 16.9706 28.253 16.8998 28.4094C16.8289 28.5659 16.7905 28.735 16.7868 28.9067C16.7831 29.0784 16.8141 29.2491 16.8781 29.4084C16.9421 29.5678 17.0376 29.7126 17.159 29.8341C17.2804 29.9555 17.4251 30.0512 17.5844 30.1152C17.7438 30.1793 17.9144 30.2105 18.0861 30.2069C18.2578 30.2033 18.427 30.1649 18.5835 30.0942C18.74 30.0235 18.8805 29.9219 18.9967 29.7954L18.9979 29.7942L23.4954 25.2967L27.9929 29.7942C28.1089 29.9208 28.2494 30.0225 28.4059 30.0933C28.5623 30.1641 28.7315 30.2026 28.9032 30.2063C29.0749 30.21 29.2455 30.179 29.4049 30.115C29.5643 30.051 29.709 29.9555 29.8305 29.8341C29.952 29.7127 30.0476 29.568 30.1117 29.4087C30.1758 29.2493 30.2069 29.0787 30.2033 28.907C30.1997 28.7353 30.1614 28.5661 30.0907 28.4096C30.02 28.2531 29.9183 28.1126 29.7919 27.9964L29.7907 27.9952L25.2932 23.5001Z" fill="white"/>
</g>
<defs>
<clipPath id="clip0_96_1359">
<rect width="28" height="28" fill="white" transform="translate(9.5 9.5)"/>
</clipPath>
</defs>
</svg>
