<svg width="36" height="36" viewBox="0 0 36 36" fill="none" xmlns="http://www.w3.org/2000/svg">
<path d="M14.346 13.0952L15.1185 15.8897C15.846 18.5222 16.209 19.8392 17.2785 20.4377C18.348 21.0377 19.7055 20.6837 22.4205 19.9787L25.3005 19.2287C28.0155 18.5237 29.373 18.1712 29.991 17.1347C30.609 16.0967 30.246 14.7797 29.517 12.1472L28.746 9.35424C28.0185 6.72024 27.654 5.40324 26.586 4.80474C25.515 4.20474 24.1575 4.55874 21.4425 5.26524L18.5625 6.01224C15.8475 6.71724 14.49 7.07124 13.8735 8.10924C13.2555 9.14574 13.6185 10.4627 14.346 13.0952Z" fill="#81C784"/>
<path d="M14.346 13.0952L15.1185 15.8897C15.846 18.5222 16.209 19.8392 17.2785 20.4377C18.348 21.0377 19.7055 20.6837 22.4205 19.9787L25.3005 19.2287C28.0155 18.5237 29.373 18.1712 29.991 17.1347C30.609 16.0967 30.246 14.7797 29.517 12.1472L28.746 9.35424C28.0185 6.72024 27.654 5.40324 26.586 4.80474C25.515 4.20474 24.1575 4.55874 21.4425 5.26524L18.5625 6.01224C15.8475 6.71724 14.49 7.07124 13.8735 8.10924C13.2555 9.14574 13.6185 10.4627 14.346 13.0952Z" fill="black" fill-opacity="0.2"/>
<path d="M3.41551 7.87066C3.45503 7.7282 3.52224 7.59492 3.6133 7.47845C3.70437 7.36198 3.81749 7.2646 3.94621 7.19189C4.07494 7.11917 4.21673 7.07253 4.36349 7.05465C4.51024 7.03676 4.65909 7.04798 4.80151 7.08766L7.35601 7.79566C8.03282 7.97993 8.65043 8.3362 9.14879 8.82983C9.64715 9.32345 10.0093 9.93764 10.2 10.6127L13.4265 22.2917L13.6635 23.1122C14.6201 23.4648 15.4263 24.1358 15.9465 25.0127L16.4115 24.8687L29.7165 21.4112C29.8595 21.3739 30.0085 21.3652 30.1548 21.3856C30.3012 21.4059 30.4421 21.4549 30.5696 21.5297C30.697 21.6045 30.8085 21.7036 30.8976 21.8215C30.9867 21.9394 31.0518 22.0737 31.089 22.2167C31.1262 22.3597 31.1349 22.5086 31.1146 22.655C31.0943 22.8014 31.0453 22.9423 30.9705 23.0697C30.8957 23.1972 30.7965 23.3087 30.6787 23.3978C30.5608 23.4869 30.4265 23.5519 30.2835 23.5892L17.028 27.0332L16.533 27.1862C16.524 29.0912 15.2085 30.8342 13.218 31.3502C10.833 31.9712 8.38051 30.5972 7.74151 28.2842C7.10251 25.9712 8.51851 23.5907 10.9035 22.9712C11.0225 22.9412 11.141 22.9152 11.259 22.8932L8.03101 11.2112C7.94371 10.9112 7.78049 10.6389 7.55713 10.4205C7.33377 10.2022 7.05783 10.0452 6.75601 9.96466L4.20001 9.25516C4.05757 9.21579 3.92429 9.14875 3.80777 9.05785C3.69126 8.96696 3.59379 8.854 3.52094 8.72543C3.44808 8.59686 3.40128 8.4552 3.38319 8.30854C3.3651 8.16187 3.37608 8.01308 3.41551 7.87066Z" fill="#81C784"/>
<path d="M3.41551 7.87066C3.45503 7.7282 3.52224 7.59492 3.6133 7.47845C3.70437 7.36198 3.81749 7.2646 3.94621 7.19189C4.07494 7.11917 4.21673 7.07253 4.36349 7.05465C4.51024 7.03676 4.65909 7.04798 4.80151 7.08766L7.35601 7.79566C8.03282 7.97993 8.65043 8.3362 9.14879 8.82983C9.64715 9.32345 10.0093 9.93764 10.2 10.6127L13.4265 22.2917L13.6635 23.1122C14.6201 23.4648 15.4263 24.1358 15.9465 25.0127L16.4115 24.8687L29.7165 21.4112C29.8595 21.3739 30.0085 21.3652 30.1548 21.3856C30.3012 21.4059 30.4421 21.4549 30.5696 21.5297C30.697 21.6045 30.8085 21.7036 30.8976 21.8215C30.9867 21.9394 31.0518 22.0737 31.089 22.2167C31.1262 22.3597 31.1349 22.5086 31.1146 22.655C31.0943 22.8014 31.0453 22.9423 30.9705 23.0697C30.8957 23.1972 30.7965 23.3087 30.6787 23.3978C30.5608 23.4869 30.4265 23.5519 30.2835 23.5892L17.028 27.0332L16.533 27.1862C16.524 29.0912 15.2085 30.8342 13.218 31.3502C10.833 31.9712 8.38051 30.5972 7.74151 28.2842C7.10251 25.9712 8.51851 23.5907 10.9035 22.9712C11.0225 22.9412 11.141 22.9152 11.259 22.8932L8.03101 11.2112C7.94371 10.9112 7.78049 10.6389 7.55713 10.4205C7.33377 10.2022 7.05783 10.0452 6.75601 9.96466L4.20001 9.25516C4.05757 9.21579 3.92429 9.14875 3.80777 9.05785C3.69126 8.96696 3.59379 8.854 3.52094 8.72543C3.44808 8.59686 3.40128 8.4552 3.38319 8.30854C3.3651 8.16187 3.37608 8.01308 3.41551 7.87066Z" fill="black" fill-opacity="0.2"/>
</svg>
