<svg width="28" height="28" viewBox="0 0 28 28" fill="none" xmlns="http://www.w3.org/2000/svg">
<path fill-rule="evenodd" clip-rule="evenodd" d="M4.86733 3.70059C3.5 5.06675 3.5 7.26709 3.5 11.6666V16.3333C3.5 20.7328 3.5 22.9331 4.86733 24.2993C6.23467 25.6654 8.43383 25.6666 12.8333 25.6666H15.1667C19.5662 25.6666 21.7665 25.6666 23.1327 24.2993C24.4988 22.9319 24.5 20.7328 24.5 16.3333V11.6666C24.5 7.26709 24.5 5.06675 23.1327 3.70059C21.7653 2.33442 19.5662 2.33325 15.1667 2.33325H12.8333C8.43383 2.33325 6.2335 2.33325 4.86733 3.70059ZM9.33333 10.7916C9.10127 10.7916 8.87871 10.8838 8.71461 11.0479C8.55052 11.212 8.45833 11.4345 8.45833 11.6666C8.45833 11.8987 8.55052 12.1212 8.71461 12.2853C8.87871 12.4494 9.10127 12.5416 9.33333 12.5416H18.6667C18.8987 12.5416 19.1213 12.4494 19.2854 12.2853C19.4495 12.1212 19.5417 11.8987 19.5417 11.6666C19.5417 11.4345 19.4495 11.212 19.2854 11.0479C19.1213 10.8838 18.8987 10.7916 18.6667 10.7916H9.33333ZM9.33333 15.4583C9.10127 15.4583 8.87871 15.5504 8.71461 15.7145C8.55052 15.8786 8.45833 16.1012 8.45833 16.3333C8.45833 16.5653 8.55052 16.7879 8.71461 16.952C8.87871 17.1161 9.10127 17.2083 9.33333 17.2083H15.1667C15.3987 17.2083 15.6213 17.1161 15.7854 16.952C15.9495 16.7879 16.0417 16.5653 16.0417 16.3333C16.0417 16.1012 15.9495 15.8786 15.7854 15.7145C15.6213 15.5504 15.3987 15.4583 15.1667 15.4583H9.33333Z" fill="#A6A6A6"/>
</svg>
